<ttFont>
<head>
    <!-- Most of this table will be recalculated by the compiler -->
    <tableVersion value="1.0"/>
    <fontRevision value="0.84999"/>
    <checkSumAdjustment value="0x2ee30d9f"/>
    <magicNumber value="0x5f0f3cf5"/>
    <flags value="00000000 00000111"/>
    <unitsPerEm value="1000"/>
    <created value="Sat Nov 28 12:14:13 2020"/>
    <modified value="Wed Sep  1 18:33:28 2021"/>
    <xMin value="-136"/>
    <yMin value="-216"/>
    <xMax value="672"/>
    <yMax value="1024"/>
    <macStyle value="00000000 00000000"/>
    <lowestRecPPEM value="7"/>
    <fontDirectionHint value="2"/>
    <indexToLocFormat value="0"/>
    <glyphDataFormat value="0"/>
  </head>
    <TTGlyph name=".notdef" xMin="98" yMin="-200" xMax="431" yMax="850">
      <contour>
        <pt x="431" y="-200" on="1"/>
        <pt x="98" y="-200" on="1"/>
        <pt x="98" y="850" on="1"/>
        <pt x="431" y="850" on="1"/>
      </contour>
      <contour>
        <pt x="350" y="-128" on="1"/>
        <pt x="350" y="-93" on="1"/>
        <pt x="243" y="-93" on="1"/>
        <pt x="316" y="-44" on="1"/>
        <pt x="350" y="-44" on="1"/>
        <pt x="350" y="-9" on="1"/>
        <pt x="175" y="-9" on="1"/>
        <pt x="175" y="-44" on="1"/>
        <pt x="249" y="-44" on="1"/>
        <pt x="175" y="-93" on="1"/>
        <pt x="175" y="-128" on="1"/>
      </contour>
      <contour>
        <pt x="350" y="15" on="1"/>
        <pt x="350" y="134" on="1"/>
        <pt x="175" y="134" on="1"/>
        <pt x="175" y="15" on="1"/>
      </contour>
      <contour>
        <pt x="350" y="197" on="1"/>
        <pt x="350" y="316" on="1"/>
        <pt x="245" y="316" on="1"/>
        <pt x="245" y="257" on="1"/>
        <pt x="280" y="257" on="1"/>
        <pt x="280" y="281" on="1"/>
        <pt x="315" y="281" on="1"/>
        <pt x="315" y="232" on="1"/>
        <pt x="210" y="232" on="1"/>
        <pt x="210" y="316" on="1"/>
        <pt x="175" y="316" on="1"/>
        <pt x="175" y="197" on="1"/>
      </contour>
      <contour>
        <pt x="350" y="339" on="1"/>
        <pt x="350" y="444" on="1"/>
        <pt x="315" y="444" on="1"/>
        <pt x="315" y="374" on="1"/>
        <pt x="175" y="374" on="1"/>
        <pt x="175" y="339" on="1"/>
      </contour>
      <contour>
        <pt x="280" y="399" on="1"/>
        <pt x="280" y="472" on="1"/>
        <pt x="350" y="472" on="1"/>
        <pt x="350" y="507" on="1"/>
        <pt x="175" y="507" on="1"/>
        <pt x="175" y="472" on="1"/>
        <pt x="245" y="472" on="1"/>
        <pt x="245" y="433" on="1"/>
        <pt x="175" y="433" on="1"/>
        <pt x="175" y="399" on="1"/>
      </contour>
      <contour>
        <pt x="350" y="535" on="1"/>
        <pt x="350" y="571" on="1"/>
        <pt x="280" y="571" on="1"/>
        <pt x="280" y="644" on="1"/>
        <pt x="175" y="644" on="1"/>
        <pt x="175" y="535" on="1"/>
      </contour>
      <contour>
        <pt x="350" y="672" on="1"/>
        <pt x="350" y="706" on="1"/>
        <pt x="280" y="706" on="1"/>
        <pt x="280" y="745" on="1"/>
        <pt x="350" y="745" on="1"/>
        <pt x="350" y="780" on="1"/>
        <pt x="176" y="780" on="1"/>
        <pt x="176" y="745" on="1"/>
        <pt x="245" y="745" on="1"/>
        <pt x="245" y="706" on="1"/>
        <pt x="175" y="706" on="1"/>
        <pt x="175" y="672" on="1"/>
      </contour>
      <contour>
        <pt x="210" y="99" on="1"/>
        <pt x="315" y="99" on="1"/>
        <pt x="315" y="50" on="1"/>
        <pt x="210" y="50" on="1"/>
      </contour>
      <contour>
        <pt x="210" y="609" on="1"/>
        <pt x="245" y="609" on="1"/>
        <pt x="245" y="571" on="1"/>
        <pt x="210" y="571" on="1"/>
      </contour>
    </TTGlyph>
    <TTGlyph name="A" xMin="59" yMin="0" xMax="641" yMax="800">
      <contour>
        <pt x="464" y="282" on="1"/>
        <pt x="231" y="282" on="1"/>
        <pt x="159" y="0" on="1"/>
        <pt x="59" y="0" on="1"/>
        <pt x="268" y="800" on="1"/>
        <pt x="432" y="800" on="1"/>
        <pt x="641" y="0" on="1"/>
        <pt x="536" y="0" on="1"/>
      </contour>
      <contour>
        <pt x="440" y="376" on="1"/>
        <pt x="348" y="735" on="1"/>
        <pt x="255" y="376" on="1"/>
      </contour>
    </TTGlyph>
    <TTGlyph name="B" xMin="120" yMin="0" xMax="627" yMax="800">
      <contour>
        <pt x="489" y="800" on="0"/>
        <pt x="627" y="687" on="0"/>
        <pt x="627" y="584" on="1"/>
        <pt x="627" y="512" on="0"/>
        <pt x="552" y="425" on="0"/>
        <pt x="481" y="415" on="1"/>
        <pt x="481" y="387" on="1"/>
        <pt x="549" y="377" on="0"/>
        <pt x="621" y="290" on="0"/>
        <pt x="621" y="217" on="1"/>
        <pt x="621" y="114" on="0"/>
        <pt x="484" y="0" on="0"/>
        <pt x="359" y="0" on="1"/>
        <pt x="120" y="0" on="1"/>
        <pt x="120" y="800" on="1"/>
        <pt x="365" y="800" on="1"/>
      </contour>
      <contour>
        <pt x="359" y="96" on="1"/>
        <pt x="439" y="96" on="0"/>
        <pt x="523" y="162" on="0"/>
        <pt x="523" y="225" on="1"/>
        <pt x="523" y="289" on="0"/>
        <pt x="439" y="355" on="0"/>
        <pt x="359" y="355" on="1"/>
        <pt x="220" y="355" on="1"/>
        <pt x="220" y="96" on="1"/>
      </contour>
      <contour>
        <pt x="365" y="448" on="1"/>
        <pt x="445" y="448" on="0"/>
        <pt x="529" y="513" on="0"/>
        <pt x="529" y="576" on="1"/>
        <pt x="529" y="639" on="0"/>
        <pt x="445" y="704" on="0"/>
        <pt x="365" y="704" on="1"/>
        <pt x="220" y="704" on="1"/>
        <pt x="220" y="448" on="1"/>
      </contour>
    </TTGlyph>
    <TTGlyph name="C" xMin="87" yMin="-15" xMax="638" yMax="815">
      <contour>
        <pt x="227" y="-15" on="0"/>
        <pt x="87" y="194" on="0"/>
        <pt x="87" y="400" on="1"/>
        <pt x="87" y="606" on="0"/>
        <pt x="232" y="815" on="0"/>
        <pt x="373" y="815" on="1"/>
        <pt x="489" y="815" on="0"/>
        <pt x="624" y="667" on="0"/>
        <pt x="638" y="524" on="1"/>
        <pt x="540" y="524" on="1"/>
        <pt x="529" y="624" on="0"/>
        <pt x="447" y="720" on="0"/>
        <pt x="373" y="720" on="1"/>
        <pt x="278" y="720" on="0"/>
        <pt x="187" y="564" on="0"/>
        <pt x="187" y="400" on="1"/>
        <pt x="187" y="236" on="0"/>
        <pt x="273" y="80" on="0"/>
        <pt x="364" y="80" on="1"/>
        <pt x="435" y="80" on="0"/>
        <pt x="515" y="169" on="0"/>
        <pt x="527" y="261" on="1"/>
        <pt x="625" y="261" on="1"/>
        <pt x="610" y="125" on="0"/>
        <pt x="477" y="-15" on="0"/>
        <pt x="364" y="-15" on="1"/>
      </contour>
    </TTGlyph>
    <TTGlyph name="D" xMin="100" yMin="0" xMax="623" yMax="800">
      <contour>
        <pt x="100" y="800" on="1"/>
        <pt x="302" y="800" on="1"/>
        <pt x="462" y="800" on="0"/>
        <pt x="623" y="599" on="0"/>
        <pt x="623" y="400" on="1"/>
        <pt x="623" y="201" on="0"/>
        <pt x="462" y="0" on="0"/>
        <pt x="302" y="0" on="1"/>
        <pt x="100" y="0" on="1"/>
      </contour>
      <contour>
        <pt x="302" y="96" on="1"/>
        <pt x="412" y="96" on="0"/>
        <pt x="523" y="249" on="0"/>
        <pt x="523" y="400" on="1"/>
        <pt x="523" y="551" on="0"/>
        <pt x="412" y="704" on="0"/>
        <pt x="302" y="704" on="1"/>
        <pt x="200" y="704" on="1"/>
        <pt x="200" y="96" on="1"/>
      </contour>
    </TTGlyph>
    <TTGlyph name="E" xMin="142" yMin="0" xMax="609" yMax="800">
      <contour>
        <pt x="142" y="800" on="1"/>
        <pt x="609" y="800" on="1"/>
        <pt x="609" y="704" on="1"/>
        <pt x="242" y="704" on="1"/>
        <pt x="242" y="449" on="1"/>
        <pt x="552" y="449" on="1"/>
        <pt x="552" y="357" on="1"/>
        <pt x="242" y="357" on="1"/>
        <pt x="242" y="96" on="1"/>
        <pt x="589" y="96" on="1"/>
        <pt x="589" y="0" on="1"/>
        <pt x="142" y="0" on="1"/>
      </contour>
    </TTGlyph>
    <TTGlyph name="Euro" xMin="40" yMin="-15" xMax="643" yMax="815">
      <contour>
        <pt x="284" y="-15" on="0"/>
        <pt x="156" y="134" on="0"/>
        <pt x="139" y="282" on="1"/>
        <pt x="40" y="282" on="1"/>
        <pt x="40" y="363" on="1"/>
        <pt x="134" y="363" on="1"/>
        <pt x="133" y="375" on="0"/>
        <pt x="133" y="400" on="1"/>
        <pt x="133" y="436" on="0"/>
        <pt x="134" y="453" on="1"/>
        <pt x="40" y="453" on="1"/>
        <pt x="40" y="534" on="1"/>
        <pt x="141" y="534" on="1"/>
        <pt x="180" y="815" on="0"/>
        <pt x="396" y="815" on="1"/>
        <pt x="506" y="815" on="0"/>
        <pt x="632" y="674" on="0"/>
        <pt x="643" y="540" on="1"/>
        <pt x="547" y="540" on="1"/>
        <pt x="537" y="632" on="0"/>
        <pt x="463" y="720" on="0"/>
        <pt x="396" y="720" on="1"/>
        <pt x="331" y="720" on="0"/>
        <pt x="254" y="628" on="0"/>
        <pt x="240" y="534" on="1"/>
        <pt x="461" y="534" on="1"/>
        <pt x="461" y="453" on="1"/>
        <pt x="232" y="453" on="1"/>
        <pt x="231" y="436" on="0"/>
        <pt x="231" y="400" on="1"/>
        <pt x="232" y="363" on="1"/>
        <pt x="461" y="363" on="1"/>
        <pt x="461" y="282" on="1"/>
        <pt x="237" y="282" on="1"/>
        <pt x="250" y="179" on="0"/>
        <pt x="327" y="80" on="0"/>
        <pt x="393" y="80" on="1"/>
        <pt x="453" y="80" on="0"/>
        <pt x="520" y="158" on="0"/>
        <pt x="530" y="240" on="1"/>
        <pt x="627" y="240" on="1"/>
        <pt x="615" y="116" on="0"/>
        <pt x="494" y="-15" on="0"/>
        <pt x="393" y="-15" on="1"/>
      </contour>
    </TTGlyph>
    <TTGlyph name="F" xMin="160" yMin="0" xMax="627" yMax="800">
      <contour>
        <pt x="160" y="800" on="1"/>
        <pt x="627" y="800" on="1"/>
        <pt x="627" y="704" on="1"/>
        <pt x="260" y="704" on="1"/>
        <pt x="260" y="439" on="1"/>
        <pt x="580" y="439" on="1"/>
        <pt x="580" y="343" on="1"/>
        <pt x="260" y="343" on="1"/>
        <pt x="260" y="0" on="1"/>
        <pt x="160" y="0" on="1"/>
      </contour>
    </TTGlyph>
    <TTGlyph name="G" xMin="77" yMin="-15" xMax="628" yMax="815">
      <contour>
        <pt x="212" y="-15" on="0"/>
        <pt x="77" y="196" on="0"/>
        <pt x="77" y="400" on="1"/>
        <pt x="77" y="606" on="0"/>
        <pt x="224" y="815" on="0"/>
        <pt x="367" y="815" on="1"/>
        <pt x="481" y="815" on="0"/>
        <pt x="614" y="677" on="0"/>
        <pt x="628" y="544" on="1"/>
        <pt x="530" y="544" on="1"/>
        <pt x="519" y="633" on="0"/>
        <pt x="439" y="720" on="0"/>
        <pt x="367" y="720" on="1"/>
        <pt x="270" y="720" on="0"/>
        <pt x="177" y="563" on="0"/>
        <pt x="177" y="400" on="1"/>
        <pt x="177" y="236" on="0"/>
        <pt x="268" y="77" on="0"/>
        <pt x="361" y="77" on="1"/>
        <pt x="431" y="77" on="0"/>
        <pt x="510" y="185" on="0"/>
        <pt x="521" y="298" on="1"/>
        <pt x="341" y="298" on="1"/>
        <pt x="341" y="394" on="1"/>
        <pt x="604" y="394" on="1"/>
        <pt x="604" y="0" on="1"/>
        <pt x="518" y="0" on="1"/>
        <pt x="518" y="92" on="1"/>
        <pt x="490" y="92" on="1"/>
        <pt x="456" y="-15" on="0"/>
        <pt x="335" y="-15" on="1"/>
      </contour>
    </TTGlyph>
    <TTGlyph name="H" xMin="100" yMin="0" xMax="600" yMax="800">
      <contour>
        <pt x="200" y="800" on="1"/>
        <pt x="200" y="450" on="1"/>
        <pt x="500" y="450" on="1"/>
        <pt x="500" y="800" on="1"/>
        <pt x="600" y="800" on="1"/>
        <pt x="600" y="0" on="1"/>
        <pt x="500" y="0" on="1"/>
        <pt x="500" y="356" on="1"/>
        <pt x="200" y="356" on="1"/>
        <pt x="200" y="0" on="1"/>
        <pt x="100" y="0" on="1"/>
        <pt x="100" y="800" on="1"/>
      </contour>
    </TTGlyph>
    <TTGlyph name="I" xMin="120" yMin="0" xMax="580" yMax="800">
      <contour>
        <pt x="120" y="96" on="1"/>
        <pt x="300" y="96" on="1"/>
        <pt x="300" y="704" on="1"/>
        <pt x="120" y="704" on="1"/>
        <pt x="120" y="800" on="1"/>
        <pt x="580" y="800" on="1"/>
        <pt x="580" y="704" on="1"/>
        <pt x="400" y="704" on="1"/>
        <pt x="400" y="96" on="1"/>
        <pt x="580" y="96" on="1"/>
        <pt x="580" y="0" on="1"/>
        <pt x="120" y="0" on="1"/>
      </contour>
    </TTGlyph>
    <TTGlyph name="J" xMin="101" yMin="-15" xMax="573" yMax="800">
      <contour>
        <pt x="226" y="-15" on="0"/>
        <pt x="101" y="116" on="0"/>
        <pt x="101" y="231" on="1"/>
        <pt x="101" y="350" on="1"/>
        <pt x="199" y="350" on="1"/>
        <pt x="199" y="231" on="1"/>
        <pt x="199" y="159" on="0"/>
        <pt x="270" y="81" on="0"/>
        <pt x="336" y="81" on="1"/>
        <pt x="402" y="81" on="0"/>
        <pt x="473" y="159" on="0"/>
        <pt x="473" y="231" on="1"/>
        <pt x="473" y="704" on="1"/>
        <pt x="155" y="704" on="1"/>
        <pt x="155" y="800" on="1"/>
        <pt x="573" y="800" on="1"/>
        <pt x="573" y="231" on="1"/>
        <pt x="573" y="115" on="0"/>
        <pt x="448" y="-15" on="0"/>
        <pt x="336" y="-15" on="1"/>
      </contour>
    </TTGlyph>
    <TTGlyph name="K" xMin="139" yMin="0" xMax="665" yMax="800">
      <contour>
        <pt x="238" y="800" on="1"/>
        <pt x="238" y="425" on="1"/>
        <pt x="544" y="800" on="1"/>
        <pt x="665" y="800" on="1"/>
        <pt x="327" y="390" on="1"/>
        <pt x="650" y="0" on="1"/>
        <pt x="524" y="0" on="1"/>
        <pt x="238" y="349" on="1"/>
        <pt x="238" y="0" on="1"/>
        <pt x="139" y="0" on="1"/>
        <pt x="139" y="800" on="1"/>
      </contour>
    </TTGlyph>
    <TTGlyph name="L" xMin="177" yMin="0" xMax="626" yMax="800">
      <contour>
        <pt x="177" y="800" on="1"/>
        <pt x="277" y="800" on="1"/>
        <pt x="277" y="96" on="1"/>
        <pt x="626" y="96" on="1"/>
        <pt x="626" y="0" on="1"/>
        <pt x="177" y="0" on="1"/>
      </contour>
    </TTGlyph>
    <TTGlyph name="M" xMin="78" yMin="0" xMax="622" yMax="800">
      <contour>
        <pt x="78" y="800" on="1"/>
        <pt x="245" y="800" on="1"/>
        <pt x="348" y="332" on="1"/>
        <pt x="357" y="332" on="1"/>
        <pt x="460" y="800" on="1"/>
        <pt x="622" y="800" on="1"/>
        <pt x="622" y="0" on="1"/>
        <pt x="526" y="0" on="1"/>
        <pt x="526" y="515" on="1"/>
        <pt x="533" y="724" on="1"/>
        <pt x="523" y="724" on="1"/>
        <pt x="421" y="274" on="1"/>
        <pt x="279" y="274" on="1"/>
        <pt x="177" y="724" on="1"/>
        <pt x="167" y="724" on="1"/>
        <pt x="174" y="515" on="1"/>
        <pt x="174" y="0" on="1"/>
        <pt x="78" y="0" on="1"/>
      </contour>
    </TTGlyph>
    <TTGlyph name="N" xMin="100" yMin="0" xMax="600" yMax="800">
      <contour>
        <pt x="100" y="800" on="1"/>
        <pt x="280" y="800" on="1"/>
        <pt x="497" y="68" on="1"/>
        <pt x="506" y="68" on="1"/>
        <pt x="500" y="269" on="1"/>
        <pt x="500" y="800" on="1"/>
        <pt x="600" y="800" on="1"/>
        <pt x="600" y="0" on="1"/>
        <pt x="420" y="0" on="1"/>
        <pt x="203" y="732" on="1"/>
        <pt x="194" y="732" on="1"/>
        <pt x="200" y="532" on="1"/>
        <pt x="200" y="0" on="1"/>
        <pt x="100" y="0" on="1"/>
      </contour>
    </TTGlyph>
    <TTGlyph name="O" xMin="65" yMin="-15" xMax="635" yMax="815">
      <contour>
        <pt x="65" y="-15" on="0"/>
        <pt x="65" y="400" on="1"/>
        <pt x="65" y="815" on="0"/>
        <pt x="350" y="815" on="1"/>
        <pt x="635" y="815" on="0"/>
        <pt x="635" y="400" on="1"/>
        <pt x="635" y="-15" on="0"/>
        <pt x="350" y="-15" on="1"/>
      </contour>
      <contour>
        <pt x="164" y="236" on="0"/>
        <pt x="255" y="78" on="0"/>
        <pt x="350" y="78" on="1"/>
        <pt x="445" y="78" on="0"/>
        <pt x="536" y="236" on="0"/>
        <pt x="536" y="400" on="1"/>
        <pt x="536" y="564" on="0"/>
        <pt x="445" y="722" on="0"/>
        <pt x="350" y="722" on="1"/>
        <pt x="255" y="722" on="0"/>
        <pt x="164" y="564" on="0"/>
        <pt x="164" y="400" on="1"/>
      </contour>
    </TTGlyph>
    <TTGlyph name="P" xMin="137" yMin="0" xMax="650" yMax="800">
      <contour>
        <pt x="137" y="800" on="1"/>
        <pt x="403" y="800" on="1"/>
        <pt x="518" y="800" on="0"/>
        <pt x="650" y="676" on="0"/>
        <pt x="650" y="567" on="1"/>
        <pt x="650" y="459" on="0"/>
        <pt x="518" y="336" on="0"/>
        <pt x="403" y="336" on="1"/>
        <pt x="237" y="336" on="1"/>
        <pt x="237" y="0" on="1"/>
        <pt x="137" y="0" on="1"/>
      </contour>
      <contour>
        <pt x="407" y="428" on="1"/>
        <pt x="474" y="428" on="0"/>
        <pt x="550" y="502" on="0"/>
        <pt x="550" y="566" on="1"/>
        <pt x="550" y="630" on="0"/>
        <pt x="474" y="704" on="0"/>
        <pt x="407" y="704" on="1"/>
        <pt x="237" y="704" on="1"/>
        <pt x="237" y="428" on="1"/>
      </contour>
    </TTGlyph>
    <TTGlyph name="Q" xMin="65" yMin="-215" xMax="635" yMax="815">
      <contour>
        <pt x="445" y="78" on="0"/>
        <pt x="536" y="236" on="0"/>
        <pt x="536" y="400" on="1"/>
        <pt x="536" y="564" on="0"/>
        <pt x="445" y="722" on="0"/>
        <pt x="350" y="722" on="1"/>
        <pt x="255" y="722" on="0"/>
        <pt x="164" y="564" on="0"/>
        <pt x="164" y="400" on="1"/>
        <pt x="164" y="236" on="0"/>
        <pt x="255" y="78" on="0"/>
        <pt x="350" y="78" on="1"/>
      </contour>
      <contour>
        <pt x="65" y="815" on="0"/>
        <pt x="350" y="815" on="1"/>
        <pt x="635" y="815" on="0"/>
        <pt x="635" y="400" on="1"/>
        <pt x="635" y="-1" on="0"/>
        <pt x="371" y="-14" on="1"/>
        <pt x="605" y="-120" on="1"/>
        <pt x="605" y="-215" on="1"/>
        <pt x="332" y="-92" on="1"/>
        <pt x="332" y="-15" on="1"/>
        <pt x="65" y="-2" on="0"/>
        <pt x="65" y="400" on="1"/>
      </contour>
    </TTGlyph>
    <TTGlyph name="R" xMin="121" yMin="0" xMax="652" yMax="800">
      <contour>
        <pt x="121" y="800" on="1"/>
        <pt x="382" y="800" on="1"/>
        <pt x="499" y="800" on="0"/>
        <pt x="635" y="677" on="0"/>
        <pt x="635" y="571" on="1"/>
        <pt x="635" y="480" on="0"/>
        <pt x="529" y="365" on="0"/>
        <pt x="436" y="352" on="1"/>
        <pt x="652" y="0" on="1"/>
        <pt x="536" y="0" on="1"/>
        <pt x="330" y="348" on="1"/>
        <pt x="221" y="348" on="1"/>
        <pt x="221" y="0" on="1"/>
        <pt x="121" y="0" on="1"/>
      </contour>
      <contour>
        <pt x="385" y="437" on="1"/>
        <pt x="456" y="437" on="0"/>
        <pt x="535" y="507" on="0"/>
        <pt x="535" y="571" on="1"/>
        <pt x="535" y="634" on="0"/>
        <pt x="456" y="704" on="0"/>
        <pt x="385" y="704" on="1"/>
        <pt x="221" y="704" on="1"/>
        <pt x="221" y="437" on="1"/>
      </contour>
    </TTGlyph>
    <TTGlyph name="S" xMin="92" yMin="-15" xMax="632" yMax="815">
      <contour>
        <pt x="209" y="81" on="0"/>
        <pt x="360" y="81" on="1"/>
        <pt x="432" y="81" on="0"/>
        <pt x="513" y="154" on="0"/>
        <pt x="513" y="221" on="1"/>
        <pt x="513" y="275" on="0"/>
        <pt x="454" y="335" on="0"/>
        <pt x="393" y="343" on="1"/>
        <pt x="311" y="354" on="1"/>
        <pt x="101" y="382" on="0"/>
        <pt x="101" y="577" on="1"/>
        <pt x="101" y="649" on="0"/>
        <pt x="165" y="757" on="0"/>
        <pt x="283" y="815" on="0"/>
        <pt x="362" y="815" on="1"/>
        <pt x="483" y="815" on="0"/>
        <pt x="622" y="692" on="0"/>
        <pt x="632" y="576" on="1"/>
        <pt x="532" y="576" on="1"/>
        <pt x="517" y="719" on="0"/>
        <pt x="362" y="719" on="1"/>
        <pt x="286" y="719" on="0"/>
        <pt x="201" y="644" on="0"/>
        <pt x="201" y="577" on="1"/>
        <pt x="201" y="523" on="0"/>
        <pt x="260" y="463" on="0"/>
        <pt x="321" y="455" on="1"/>
        <pt x="403" y="444" on="1"/>
        <pt x="613" y="416" on="0"/>
        <pt x="613" y="221" on="1"/>
        <pt x="613" y="149" on="0"/>
        <pt x="551" y="42" on="0"/>
        <pt x="437" y="-15" on="0"/>
        <pt x="360" y="-15" on="1"/>
        <pt x="241" y="-15" on="0"/>
        <pt x="103" y="97" on="0"/>
        <pt x="92" y="204" on="1"/>
        <pt x="194" y="204" on="1"/>
      </contour>
    </TTGlyph>
    <TTGlyph name="T" xMin="80" yMin="0" xMax="620" yMax="800">
      <contour>
        <pt x="300" y="704" on="1"/>
        <pt x="80" y="704" on="1"/>
        <pt x="80" y="800" on="1"/>
        <pt x="620" y="800" on="1"/>
        <pt x="620" y="704" on="1"/>
        <pt x="400" y="704" on="1"/>
        <pt x="400" y="0" on="1"/>
        <pt x="300" y="0" on="1"/>
      </contour>
    </TTGlyph>
    <TTGlyph name="U" xMin="91" yMin="-15" xMax="609" yMax="800">
      <contour>
        <pt x="191" y="800" on="1"/>
        <pt x="191" y="258" on="1"/>
        <pt x="191" y="173" on="0"/>
        <pt x="273" y="81" on="0"/>
        <pt x="350" y="81" on="1"/>
        <pt x="427" y="81" on="0"/>
        <pt x="509" y="173" on="0"/>
        <pt x="509" y="258" on="1"/>
        <pt x="509" y="800" on="1"/>
        <pt x="609" y="800" on="1"/>
        <pt x="609" y="258" on="1"/>
        <pt x="609" y="130" on="0"/>
        <pt x="472" y="-15" on="0"/>
        <pt x="350" y="-15" on="1"/>
        <pt x="228" y="-15" on="0"/>
        <pt x="91" y="130" on="0"/>
        <pt x="91" y="258" on="1"/>
        <pt x="91" y="800" on="1"/>
      </contour>
    </TTGlyph>
    <TTGlyph name="V" xMin="59" yMin="0" xMax="641" yMax="800">
      <contour>
        <pt x="353" y="65" on="1"/>
        <pt x="541" y="800" on="1"/>
        <pt x="641" y="800" on="1"/>
        <pt x="432" y="0" on="1"/>
        <pt x="268" y="0" on="1"/>
        <pt x="59" y="800" on="1"/>
        <pt x="164" y="800" on="1"/>
      </contour>
    </TTGlyph>
    <TTGlyph name="W" xMin="28" yMin="0" xMax="672" yMax="800">
      <contour>
        <pt x="213" y="119" on="1"/>
        <pt x="284" y="598" on="1"/>
        <pt x="423" y="598" on="1"/>
        <pt x="491" y="120" on="1"/>
        <pt x="570" y="800" on="1"/>
        <pt x="672" y="800" on="1"/>
        <pt x="566" y="0" on="1"/>
        <pt x="423" y="0" on="1"/>
        <pt x="351" y="497" on="1"/>
        <pt x="277" y="0" on="1"/>
        <pt x="134" y="0" on="1"/>
        <pt x="28" y="800" on="1"/>
        <pt x="135" y="800" on="1"/>
      </contour>
    </TTGlyph>
    <TTGlyph name="X" xMin="59" yMin="0" xMax="641" yMax="800">
      <contour>
        <pt x="350" y="435" on="1"/>
        <pt x="531" y="800" on="1"/>
        <pt x="641" y="800" on="1"/>
        <pt x="433" y="386" on="1"/>
        <pt x="627" y="0" on="1"/>
        <pt x="510" y="0" on="1"/>
        <pt x="350" y="336" on="1"/>
        <pt x="186" y="0" on="1"/>
        <pt x="73" y="0" on="1"/>
        <pt x="268" y="386" on="1"/>
        <pt x="59" y="800" on="1"/>
        <pt x="174" y="800" on="1"/>
      </contour>
    </TTGlyph>
    <TTGlyph name="Y" xMin="49" yMin="0" xMax="651" yMax="800">
      <contour>
        <pt x="351" y="446" on="1"/>
        <pt x="541" y="800" on="1"/>
        <pt x="651" y="800" on="1"/>
        <pt x="400" y="346" on="1"/>
        <pt x="400" y="0" on="1"/>
        <pt x="300" y="0" on="1"/>
        <pt x="300" y="346" on="1"/>
        <pt x="49" y="800" on="1"/>
        <pt x="161" y="800" on="1"/>
      </contour>
    </TTGlyph>
    <TTGlyph name="Z" xMin="108" yMin="0" xMax="592" yMax="800">
      <contour>
        <pt x="108" y="170" on="1"/>
        <pt x="532" y="704" on="1"/>
        <pt x="108" y="704" on="1"/>
        <pt x="108" y="800" on="1"/>
        <pt x="592" y="800" on="1"/>
        <pt x="592" y="630" on="1"/>
        <pt x="168" y="96" on="1"/>
        <pt x="592" y="96" on="1"/>
        <pt x="592" y="0" on="1"/>
        <pt x="108" y="0" on="1"/>
      </contour>
    </TTGlyph>
    <TTGlyph name="_part.multiply" xMin="118" yMin="118" xMax="582" yMax="582">
      <contour>
        <pt x="118" y="524" on="1"/>
        <pt x="176" y="582" on="1"/>
        <pt x="582" y="176" on="1"/>
        <pt x="524" y="118" on="1"/>
      </contour>
    </TTGlyph>
    <TTGlyph name="a" xMin="76" yMin="-15" xMax="567" yMax="613">
      <contour>
        <pt x="86" y="495" on="0"/>
        <pt x="226" y="613" on="0"/>
        <pt x="337" y="613" on="1"/>
        <pt x="447" y="613" on="0"/>
        <pt x="567" y="506" on="0"/>
        <pt x="567" y="409" on="1"/>
        <pt x="567" y="0" on="1"/>
        <pt x="471" y="0" on="1"/>
        <pt x="471" y="71" on="1"/>
        <pt x="443" y="71" on="1"/>
        <pt x="427" y="30" on="0"/>
        <pt x="344" y="-15" on="0"/>
        <pt x="287" y="-15" on="1"/>
        <pt x="204" y="-15" on="0"/>
        <pt x="107" y="76" on="0"/>
        <pt x="107" y="154" on="1"/>
        <pt x="107" y="227" on="0"/>
        <pt x="198" y="322" on="0"/>
        <pt x="284" y="337" on="1"/>
        <pt x="471" y="367" on="1"/>
        <pt x="471" y="392" on="1"/>
        <pt x="471" y="456" on="0"/>
        <pt x="402" y="523" on="0"/>
        <pt x="337" y="523" on="1"/>
        <pt x="267" y="523" on="0"/>
        <pt x="183" y="455" on="0"/>
        <pt x="175" y="393" on="1"/>
        <pt x="76" y="393" on="1"/>
      </contour>
      <contour>
        <pt x="206" y="117" on="0"/>
        <pt x="260" y="72" on="0"/>
        <pt x="309" y="72" on="1"/>
        <pt x="354" y="72" on="0"/>
        <pt x="428" y="116" on="0"/>
        <pt x="471" y="194" on="0"/>
        <pt x="471" y="242" on="1"/>
        <pt x="471" y="280" on="1"/>
        <pt x="301" y="252" on="1"/>
        <pt x="255" y="244" on="0"/>
        <pt x="206" y="196" on="0"/>
        <pt x="206" y="158" on="1"/>
      </contour>
    </TTGlyph>
    <TTGlyph name="ampersand" xMin="90" yMin="-23" xMax="610" yMax="815">
      <contour>
        <pt x="90" y="254" on="0"/>
        <pt x="131" y="344" on="0"/>
        <pt x="193" y="410" on="0"/>
        <pt x="239" y="447" on="1"/>
        <pt x="194" y="503" on="0"/>
        <pt x="154" y="595" on="0"/>
        <pt x="154" y="640" on="1"/>
        <pt x="154" y="722" on="0"/>
        <pt x="241" y="815" on="0"/>
        <pt x="317" y="815" on="1"/>
        <pt x="392" y="815" on="0"/>
        <pt x="478" y="722" on="0"/>
        <pt x="478" y="642" on="1"/>
        <pt x="478" y="577" on="0"/>
        <pt x="418" y="481" on="0"/>
        <pt x="364" y="434" on="1"/>
        <pt x="481" y="284" on="1"/>
        <pt x="492" y="339" on="0"/>
        <pt x="496" y="403" on="1"/>
        <pt x="592" y="403" on="1"/>
        <pt x="582" y="284" on="0"/>
        <pt x="551" y="195" on="1"/>
        <pt x="610" y="119" on="1"/>
        <pt x="610" y="-23" on="1"/>
        <pt x="509" y="105" on="1"/>
        <pt x="433" y="-15" on="0"/>
        <pt x="298" y="-15" on="1"/>
        <pt x="236" y="-15" on="0"/>
        <pt x="142" y="37" on="0"/>
        <pt x="90" y="133" on="0"/>
        <pt x="90" y="196" on="1"/>
      </contour>
      <contour>
        <pt x="192" y="146" on="0"/>
        <pt x="252" y="81" on="0"/>
        <pt x="301" y="81" on="1"/>
        <pt x="398" y="81" on="0"/>
        <pt x="447" y="183" on="1"/>
        <pt x="295" y="376" on="1"/>
        <pt x="245" y="332" on="0"/>
        <pt x="192" y="252" on="0"/>
        <pt x="192" y="199" on="1"/>
      </contour>
      <contour>
        <pt x="253" y="604" on="0"/>
        <pt x="276" y="545" on="0"/>
        <pt x="301" y="514" on="1"/>
        <pt x="308" y="505" on="1"/>
        <pt x="342" y="536" on="0"/>
        <pt x="379" y="600" on="0"/>
        <pt x="379" y="639" on="1"/>
        <pt x="379" y="676" on="0"/>
        <pt x="346" y="719" on="0"/>
        <pt x="317" y="719" on="1"/>
        <pt x="288" y="719" on="0"/>
        <pt x="253" y="675" on="0"/>
        <pt x="253" y="637" on="1"/>
      </contour>
    </TTGlyph>
    <TTGlyph name="approxequal" xMin="80" yMin="121" xMax="620" yMax="579">
      <component glyphName="asciitilde" x="0" y="123" flags="0x4"/>
      <component glyphName="asciitilde" x="0" y="-123" flags="0x4"/>
    </TTGlyph>
    <TTGlyph name="approxequal.case" xMin="80" yMin="171" xMax="620" yMax="629">
      <component glyphName="approxequal" x="0" y="50" flags="0x4"/>
    </TTGlyph>
    <TTGlyph name="asciicircum" xMin="125" yMin="517" xMax="575" yMax="815">
      <contour>
        <pt x="291" y="815" on="1"/>
        <pt x="409" y="815" on="1"/>
        <pt x="575" y="517" on="1"/>
        <pt x="480" y="517" on="1"/>
        <pt x="350" y="758" on="1"/>
        <pt x="220" y="517" on="1"/>
        <pt x="125" y="517" on="1"/>
      </contour>
    </TTGlyph>
    <TTGlyph name="asciitilde" xMin="80" yMin="244" xMax="620" yMax="456">
      <contour>
        <pt x="426" y="244" on="0"/>
        <pt x="361" y="282" on="0"/>
        <pt x="320" y="319" on="1"/>
        <pt x="291" y="346" on="0"/>
        <pt x="251" y="372" on="0"/>
        <pt x="227" y="372" on="1"/>
        <pt x="201" y="372" on="0"/>
        <pt x="166" y="331" on="0"/>
        <pt x="161" y="293" on="1"/>
        <pt x="80" y="293" on="1"/>
        <pt x="89" y="370" on="0"/>
        <pt x="167" y="456" on="0"/>
        <pt x="228" y="456" on="1"/>
        <pt x="274" y="456" on="0"/>
        <pt x="339" y="418" on="0"/>
        <pt x="380" y="381" on="1"/>
        <pt x="409" y="354" on="0"/>
        <pt x="449" y="328" on="0"/>
        <pt x="473" y="328" on="1"/>
        <pt x="499" y="328" on="0"/>
        <pt x="534" y="369" on="0"/>
        <pt x="539" y="407" on="1"/>
        <pt x="620" y="407" on="1"/>
        <pt x="611" y="330" on="0"/>
        <pt x="533" y="244" on="0"/>
        <pt x="472" y="244" on="1"/>
      </contour>
    </TTGlyph>
    <TTGlyph name="asciitilde.case" xMin="80" yMin="294" xMax="620" yMax="506">
      <component glyphName="asciitilde" x="0" y="50" flags="0x4"/>
    </TTGlyph>
    <TTGlyph name="asterisk" xMin="105" yMin="348" xMax="595" yMax="815">
      <contour>
        <pt x="402" y="815" on="1"/>
        <pt x="387" y="625" on="1"/>
        <pt x="563" y="698" on="1"/>
        <pt x="595" y="599" on="1"/>
        <pt x="410" y="555" on="1"/>
        <pt x="534" y="409" on="1"/>
        <pt x="450" y="348" on="1"/>
        <pt x="350" y="511" on="1"/>
        <pt x="250" y="348" on="1"/>
        <pt x="166" y="409" on="1"/>
        <pt x="290" y="555" on="1"/>
        <pt x="105" y="599" on="1"/>
        <pt x="137" y="698" on="1"/>
        <pt x="313" y="625" on="1"/>
        <pt x="298" y="815" on="1"/>
      </contour>
    </TTGlyph>
    <TTGlyph name="at" xMin="66" yMin="-132" xMax="619" yMax="815">
      <contour>
        <pt x="66" y="-132" on="0"/>
        <pt x="66" y="340" on="1"/>
        <pt x="66" y="815" on="0"/>
        <pt x="374" y="815" on="1"/>
        <pt x="619" y="815" on="0"/>
        <pt x="619" y="518" on="1"/>
        <pt x="619" y="111" on="1"/>
        <pt x="550" y="111" on="1"/>
        <pt x="550" y="166" on="1"/>
        <pt x="522" y="166" on="1"/>
        <pt x="504" y="96" on="0"/>
        <pt x="419" y="96" on="1"/>
        <pt x="266" y="96" on="0"/>
        <pt x="266" y="340" on="1"/>
        <pt x="266" y="584" on="0"/>
        <pt x="419" y="584" on="1"/>
        <pt x="496" y="584" on="0"/>
        <pt x="514" y="514" on="1"/>
        <pt x="542" y="514" on="1"/>
        <pt x="542" y="518" on="1"/>
        <pt x="542" y="740" on="0"/>
        <pt x="374" y="740" on="1"/>
        <pt x="145" y="740" on="0"/>
        <pt x="145" y="340" on="1"/>
        <pt x="145" y="-59" on="0"/>
        <pt x="377" y="-59" on="1"/>
        <pt x="471" y="-59" on="0"/>
        <pt x="522" y="-23" on="1"/>
        <pt x="522" y="-95" on="1"/>
        <pt x="472" y="-132" on="0"/>
        <pt x="377" y="-132" on="1"/>
      </contour>
      <contour>
        <pt x="345" y="173" on="0"/>
        <pt x="446" y="173" on="1"/>
        <pt x="546" y="173" on="0"/>
        <pt x="546" y="340" on="1"/>
        <pt x="546" y="507" on="0"/>
        <pt x="446" y="507" on="1"/>
        <pt x="345" y="507" on="0"/>
        <pt x="345" y="340" on="1"/>
      </contour>
    </TTGlyph>
    <TTGlyph name="b" xMin="113" yMin="-15" xMax="632" yMax="848">
      <contour>
        <pt x="335" y="-15" on="0"/>
        <pt x="252" y="37" on="0"/>
        <pt x="237" y="85" on="1"/>
        <pt x="209" y="85" on="1"/>
        <pt x="209" y="0" on="1"/>
        <pt x="113" y="0" on="1"/>
        <pt x="113" y="848" on="1"/>
        <pt x="209" y="848" on="1"/>
        <pt x="209" y="513" on="1"/>
        <pt x="237" y="513" on="1"/>
        <pt x="252" y="561" on="0"/>
        <pt x="335" y="613" on="0"/>
        <pt x="396" y="613" on="1"/>
        <pt x="468" y="613" on="0"/>
        <pt x="575" y="537" on="0"/>
        <pt x="632" y="395" on="0"/>
        <pt x="632" y="299" on="1"/>
        <pt x="632" y="203" on="0"/>
        <pt x="575" y="61" on="0"/>
        <pt x="468" y="-15" on="0"/>
        <pt x="396" y="-15" on="1"/>
      </contour>
      <contour>
        <pt x="204" y="192" on="0"/>
        <pt x="291" y="73" on="0"/>
        <pt x="369" y="73" on="1"/>
        <pt x="447" y="73" on="0"/>
        <pt x="534" y="192" on="0"/>
        <pt x="534" y="299" on="1"/>
        <pt x="534" y="406" on="0"/>
        <pt x="447" y="524" on="0"/>
        <pt x="369" y="524" on="1"/>
        <pt x="291" y="524" on="0"/>
        <pt x="204" y="406" on="0"/>
        <pt x="204" y="299" on="1"/>
      </contour>
    </TTGlyph>
    <TTGlyph name="backslash" xMin="129" yMin="-170" xMax="571" yMax="848">
      <contour>
        <pt x="224" y="848" on="1"/>
        <pt x="571" y="-170" on="1"/>
        <pt x="476" y="-170" on="1"/>
        <pt x="129" y="848" on="1"/>
      </contour>
    </TTGlyph>
    <TTGlyph name="bar" xMin="309" yMin="-60" xMax="391" yMax="860">
      <contour>
        <pt x="391" y="-60" on="1"/>
        <pt x="309" y="-60" on="1"/>
        <pt x="309" y="860" on="1"/>
        <pt x="391" y="860" on="1"/>
      </contour>
    </TTGlyph>
    <TTGlyph name="braceleft" xMin="250" yMin="-147" xMax="537" yMax="907">
      <contour>
        <pt x="478" y="819" on="0"/>
        <pt x="412" y="765" on="0"/>
        <pt x="412" y="721" on="1"/>
        <pt x="412" y="689" on="0"/>
        <pt x="422" y="627" on="1"/>
        <pt x="432" y="563" on="0"/>
        <pt x="432" y="532" on="1"/>
        <pt x="432" y="466" on="0"/>
        <pt x="373" y="395" on="0"/>
        <pt x="312" y="387" on="1"/>
        <pt x="312" y="373" on="1"/>
        <pt x="373" y="365" on="0"/>
        <pt x="432" y="294" on="0"/>
        <pt x="432" y="228" on="1"/>
        <pt x="432" y="196" on="0"/>
        <pt x="422" y="134" on="1"/>
        <pt x="412" y="70" on="0"/>
        <pt x="412" y="39" on="1"/>
        <pt x="412" y="-5" on="0"/>
        <pt x="478" y="-59" on="0"/>
        <pt x="537" y="-64" on="1"/>
        <pt x="537" y="-147" on="1"/>
        <pt x="440" y="-140" on="0"/>
        <pt x="324" y="-34" on="0"/>
        <pt x="324" y="47" on="1"/>
        <pt x="324" y="73" on="0"/>
        <pt x="334" y="125" on="1"/>
        <pt x="344" y="179" on="0"/>
        <pt x="344" y="208" on="1"/>
        <pt x="344" y="271" on="0"/>
        <pt x="299" y="330" on="0"/>
        <pt x="250" y="329" on="1"/>
        <pt x="250" y="431" on="1"/>
        <pt x="299" y="430" on="0"/>
        <pt x="344" y="489" on="0"/>
        <pt x="344" y="552" on="1"/>
        <pt x="344" y="581" on="0"/>
        <pt x="334" y="635" on="1"/>
        <pt x="324" y="687" on="0"/>
        <pt x="324" y="713" on="1"/>
        <pt x="324" y="794" on="0"/>
        <pt x="440" y="900" on="0"/>
        <pt x="537" y="907" on="1"/>
        <pt x="537" y="824" on="1"/>
      </contour>
    </TTGlyph>
    <TTGlyph name="braceright" xMin="163" yMin="-147" xMax="450" yMax="907">
      <contour>
        <pt x="260" y="900" on="0"/>
        <pt x="376" y="794" on="0"/>
        <pt x="376" y="713" on="1"/>
        <pt x="376" y="687" on="0"/>
        <pt x="366" y="635" on="1"/>
        <pt x="356" y="581" on="0"/>
        <pt x="356" y="552" on="1"/>
        <pt x="356" y="489" on="0"/>
        <pt x="401" y="430" on="0"/>
        <pt x="450" y="431" on="1"/>
        <pt x="450" y="329" on="1"/>
        <pt x="401" y="330" on="0"/>
        <pt x="356" y="271" on="0"/>
        <pt x="356" y="208" on="1"/>
        <pt x="356" y="179" on="0"/>
        <pt x="366" y="125" on="1"/>
        <pt x="376" y="73" on="0"/>
        <pt x="376" y="47" on="1"/>
        <pt x="376" y="-34" on="0"/>
        <pt x="260" y="-140" on="0"/>
        <pt x="163" y="-147" on="1"/>
        <pt x="163" y="-64" on="1"/>
        <pt x="222" y="-59" on="0"/>
        <pt x="288" y="-5" on="0"/>
        <pt x="288" y="39" on="1"/>
        <pt x="288" y="70" on="0"/>
        <pt x="278" y="134" on="1"/>
        <pt x="268" y="196" on="0"/>
        <pt x="268" y="228" on="1"/>
        <pt x="268" y="294" on="0"/>
        <pt x="327" y="365" on="0"/>
        <pt x="388" y="373" on="1"/>
        <pt x="388" y="387" on="1"/>
        <pt x="327" y="395" on="0"/>
        <pt x="268" y="466" on="0"/>
        <pt x="268" y="532" on="1"/>
        <pt x="268" y="563" on="0"/>
        <pt x="278" y="627" on="1"/>
        <pt x="288" y="689" on="0"/>
        <pt x="288" y="721" on="1"/>
        <pt x="288" y="765" on="0"/>
        <pt x="222" y="819" on="0"/>
        <pt x="163" y="824" on="1"/>
        <pt x="163" y="907" on="1"/>
      </contour>
    </TTGlyph>
    <TTGlyph name="bracketleft" xMin="312" yMin="-138" xMax="537" yMax="898">
      <contour>
        <pt x="537" y="816" on="1"/>
        <pt x="397" y="816" on="1"/>
        <pt x="397" y="-56" on="1"/>
        <pt x="537" y="-56" on="1"/>
        <pt x="537" y="-138" on="1"/>
        <pt x="312" y="-138" on="1"/>
        <pt x="312" y="898" on="1"/>
        <pt x="537" y="898" on="1"/>
      </contour>
    </TTGlyph>
    <TTGlyph name="bracketright" xMin="163" yMin="-138" xMax="388" yMax="898">
      <contour>
        <pt x="388" y="898" on="1"/>
        <pt x="388" y="-138" on="1"/>
        <pt x="163" y="-138" on="1"/>
        <pt x="163" y="-56" on="1"/>
        <pt x="303" y="-56" on="1"/>
        <pt x="303" y="816" on="1"/>
        <pt x="163" y="816" on="1"/>
        <pt x="163" y="898" on="1"/>
      </contour>
    </TTGlyph>
    <TTGlyph name="bullet" xMin="168" yMin="168" xMax="532" yMax="532">
      <contour>
        <pt x="262" y="168" on="0"/>
        <pt x="168" y="262" on="0"/>
        <pt x="168" y="350" on="1"/>
        <pt x="168" y="438" on="0"/>
        <pt x="262" y="532" on="0"/>
        <pt x="350" y="532" on="1"/>
        <pt x="438" y="532" on="0"/>
        <pt x="532" y="438" on="0"/>
        <pt x="532" y="350" on="1"/>
        <pt x="532" y="262" on="0"/>
        <pt x="438" y="168" on="0"/>
        <pt x="350" y="168" on="1"/>
      </contour>
    </TTGlyph>
    <TTGlyph name="c" xMin="100" yMin="-15" xMax="619" yMax="613">
      <contour>
        <pt x="283" y="-15" on="0"/>
        <pt x="164" y="60" on="0"/>
        <pt x="100" y="200" on="0"/>
        <pt x="100" y="296" on="1"/>
        <pt x="100" y="393" on="0"/>
        <pt x="166" y="536" on="0"/>
        <pt x="288" y="613" on="0"/>
        <pt x="371" y="613" on="1"/>
        <pt x="477" y="613" on="0"/>
        <pt x="611" y="481" on="0"/>
        <pt x="619" y="368" on="1"/>
        <pt x="527" y="368" on="1"/>
        <pt x="519" y="442" on="0"/>
        <pt x="435" y="523" on="0"/>
        <pt x="368" y="523" on="1"/>
        <pt x="286" y="523" on="0"/>
        <pt x="196" y="404" on="0"/>
        <pt x="196" y="296" on="1"/>
        <pt x="196" y="190" on="0"/>
        <pt x="283" y="75" on="0"/>
        <pt x="363" y="75" on="1"/>
        <pt x="426" y="75" on="0"/>
        <pt x="505" y="147" on="0"/>
        <pt x="514" y="212" on="1"/>
        <pt x="606" y="212" on="1"/>
        <pt x="597" y="107" on="0"/>
        <pt x="465" y="-15" on="0"/>
        <pt x="363" y="-15" on="1"/>
      </contour>
    </TTGlyph>
    <TTGlyph name="cent" xMin="100" yMin="-101" xMax="619" yMax="699">
      <contour>
        <pt x="326" y="-13" on="1"/>
        <pt x="220" y="0" on="0"/>
        <pt x="100" y="163" on="0"/>
        <pt x="100" y="296" on="1"/>
        <pt x="100" y="429" on="0"/>
        <pt x="220" y="595" on="0"/>
        <pt x="326" y="610" on="1"/>
        <pt x="326" y="699" on="1"/>
        <pt x="398" y="699" on="1"/>
        <pt x="398" y="612" on="1"/>
        <pt x="493" y="603" on="0"/>
        <pt x="612" y="473" on="0"/>
        <pt x="619" y="368" on="1"/>
        <pt x="527" y="368" on="1"/>
        <pt x="520" y="433" on="0"/>
        <pt x="453" y="512" on="0"/>
        <pt x="398" y="521" on="1"/>
        <pt x="398" y="78" on="1"/>
        <pt x="446" y="87" on="0"/>
        <pt x="507" y="157" on="0"/>
        <pt x="514" y="212" on="1"/>
        <pt x="606" y="212" on="1"/>
        <pt x="598" y="117" on="0"/>
        <pt x="486" y="-2" on="0"/>
        <pt x="398" y="-13" on="1"/>
        <pt x="398" y="-101" on="1"/>
        <pt x="326" y="-101" on="1"/>
      </contour>
      <contour>
        <pt x="196" y="203" on="0"/>
        <pt x="263" y="92" on="0"/>
        <pt x="326" y="79" on="1"/>
        <pt x="326" y="518" on="1"/>
        <pt x="264" y="504" on="0"/>
        <pt x="196" y="389" on="0"/>
        <pt x="196" y="296" on="1"/>
      </contour>
    </TTGlyph>
    <TTGlyph name="cent.bold" xMin="100" yMin="-101" xMax="619" yMax="699">
      <contour>
        <pt x="398" y="699" on="1"/>
        <pt x="398" y="612" on="1"/>
        <pt x="493" y="603" on="0"/>
        <pt x="612" y="473" on="0"/>
        <pt x="619" y="368" on="1"/>
        <pt x="527" y="368" on="1"/>
        <pt x="519" y="442" on="0"/>
        <pt x="435" y="523" on="0"/>
        <pt x="368" y="523" on="1"/>
        <pt x="286" y="523" on="0"/>
        <pt x="196" y="404" on="0"/>
        <pt x="196" y="296" on="1"/>
        <pt x="196" y="190" on="0"/>
        <pt x="283" y="75" on="0"/>
        <pt x="363" y="75" on="1"/>
        <pt x="426" y="75" on="0"/>
        <pt x="505" y="147" on="0"/>
        <pt x="514" y="212" on="1"/>
        <pt x="606" y="212" on="1"/>
        <pt x="598" y="117" on="0"/>
        <pt x="486" y="-2" on="0"/>
        <pt x="398" y="-13" on="1"/>
        <pt x="398" y="-101" on="1"/>
        <pt x="326" y="-101" on="1"/>
        <pt x="326" y="-13" on="1"/>
        <pt x="220" y="0" on="0"/>
        <pt x="100" y="163" on="0"/>
        <pt x="100" y="296" on="1"/>
        <pt x="100" y="429" on="0"/>
        <pt x="220" y="595" on="0"/>
        <pt x="326" y="610" on="1"/>
        <pt x="326" y="699" on="1"/>
      </contour>
    </TTGlyph>
    <TTGlyph name="colon" xMin="267" yMin="-8" xMax="433" yMax="606">
      <component glyphName="period" x="0" y="0" flags="0x0"/>
      <component glyphName="period" x="0" y="442" flags="0x4"/>
    </TTGlyph>
    <TTGlyph name="colon.case" xMin="267" yMin="93" xMax="433" yMax="707">
      <component glyphName="colon" x="0" y="101" flags="0x4"/>
    </TTGlyph>
    <TTGlyph name="comma" xMin="255" yMin="-178" xMax="442" yMax="164">
      <contour>
        <pt x="310" y="-8" on="0"/>
        <pt x="267" y="37" on="0"/>
        <pt x="267" y="78" on="1"/>
        <pt x="267" y="119" on="0"/>
        <pt x="310" y="164" on="0"/>
        <pt x="350" y="164" on="1"/>
        <pt x="397" y="164" on="0"/>
        <pt x="442" y="109" on="0"/>
        <pt x="442" y="52" on="1"/>
        <pt x="442" y="-20" on="0"/>
        <pt x="412" y="-132" on="0"/>
        <pt x="381" y="-178" on="1"/>
        <pt x="255" y="-178" on="1"/>
        <pt x="308" y="-137" on="0"/>
        <pt x="367" y="-53" on="0"/>
        <pt x="376" y="-5" on="1"/>
        <pt x="364" y="-8" on="0"/>
        <pt x="350" y="-8" on="1"/>
      </contour>
    </TTGlyph>
    <TTGlyph name="copyright" xMin="65" yMin="100" xMax="635" yMax="700">
      <contour>
        <pt x="270" y="100" on="0"/>
        <pt x="139" y="178" on="0"/>
        <pt x="65" y="315" on="0"/>
        <pt x="65" y="400" on="1"/>
        <pt x="65" y="485" on="0"/>
        <pt x="139" y="622" on="0"/>
        <pt x="270" y="700" on="0"/>
        <pt x="350" y="700" on="1"/>
        <pt x="430" y="700" on="0"/>
        <pt x="561" y="622" on="0"/>
        <pt x="635" y="485" on="0"/>
        <pt x="635" y="400" on="1"/>
        <pt x="635" y="315" on="0"/>
        <pt x="561" y="178" on="0"/>
        <pt x="430" y="100" on="0"/>
        <pt x="350" y="100" on="1"/>
      </contour>
      <contour>
        <pt x="122" y="329" on="0"/>
        <pt x="180" y="219" on="0"/>
        <pt x="284" y="157" on="0"/>
        <pt x="350" y="157" on="1"/>
        <pt x="416" y="157" on="0"/>
        <pt x="520" y="219" on="0"/>
        <pt x="578" y="329" on="0"/>
        <pt x="578" y="400" on="1"/>
        <pt x="578" y="471" on="0"/>
        <pt x="520" y="581" on="0"/>
        <pt x="416" y="643" on="0"/>
        <pt x="350" y="643" on="1"/>
        <pt x="284" y="643" on="0"/>
        <pt x="180" y="581" on="0"/>
        <pt x="122" y="471" on="0"/>
        <pt x="122" y="400" on="1"/>
      </contour>
      <contour>
        <pt x="214" y="470" on="0"/>
        <pt x="290" y="555" on="0"/>
        <pt x="353" y="555" on="1"/>
        <pt x="407" y="555" on="0"/>
        <pt x="481" y="487" on="0"/>
        <pt x="488" y="430" on="1"/>
        <pt x="429" y="430" on="1"/>
        <pt x="424" y="462" on="0"/>
        <pt x="383" y="499" on="0"/>
        <pt x="353" y="499" on="1"/>
        <pt x="315" y="499" on="0"/>
        <pt x="271" y="446" on="0"/>
        <pt x="271" y="400" on="1"/>
        <pt x="271" y="357" on="0"/>
        <pt x="316" y="304" on="0"/>
        <pt x="352" y="304" on="1"/>
        <pt x="379" y="304" on="0"/>
        <pt x="414" y="336" on="0"/>
        <pt x="417" y="362" on="1"/>
        <pt x="476" y="362" on="1"/>
        <pt x="471" y="312" on="0"/>
        <pt x="402" y="248" on="0"/>
        <pt x="352" y="248" on="1"/>
        <pt x="291" y="248" on="0"/>
        <pt x="214" y="334" on="0"/>
        <pt x="214" y="400" on="1"/>
      </contour>
    </TTGlyph>
    <TTGlyph name="currency" xMin="99" yMin="99" xMax="601" yMax="601">
      <contour>
        <pt x="281" y="140" on="0"/>
        <pt x="228" y="179" on="1"/>
        <pt x="148" y="99" on="1"/>
        <pt x="99" y="148" on="1"/>
        <pt x="179" y="228" on="1"/>
        <pt x="140" y="281" on="0"/>
        <pt x="140" y="350" on="1"/>
        <pt x="140" y="419" on="0"/>
        <pt x="179" y="472" on="1"/>
        <pt x="99" y="552" on="1"/>
        <pt x="148" y="601" on="1"/>
        <pt x="228" y="521" on="1"/>
        <pt x="281" y="560" on="0"/>
        <pt x="350" y="560" on="1"/>
        <pt x="419" y="560" on="0"/>
        <pt x="472" y="521" on="1"/>
        <pt x="552" y="601" on="1"/>
        <pt x="601" y="552" on="1"/>
        <pt x="521" y="472" on="1"/>
        <pt x="560" y="419" on="0"/>
        <pt x="560" y="350" on="1"/>
        <pt x="560" y="281" on="0"/>
        <pt x="521" y="228" on="1"/>
        <pt x="601" y="148" on="1"/>
        <pt x="552" y="99" on="1"/>
        <pt x="472" y="179" on="1"/>
        <pt x="419" y="140" on="0"/>
        <pt x="350" y="140" on="1"/>
      </contour>
      <contour>
        <pt x="219" y="315" on="0"/>
        <pt x="254" y="254" on="0"/>
        <pt x="315" y="219" on="0"/>
        <pt x="350" y="219" on="1"/>
        <pt x="385" y="219" on="0"/>
        <pt x="446" y="254" on="0"/>
        <pt x="481" y="315" on="0"/>
        <pt x="481" y="350" on="1"/>
        <pt x="481" y="385" on="0"/>
        <pt x="446" y="446" on="0"/>
        <pt x="385" y="481" on="0"/>
        <pt x="350" y="481" on="1"/>
        <pt x="315" y="481" on="0"/>
        <pt x="254" y="446" on="0"/>
        <pt x="219" y="385" on="0"/>
        <pt x="219" y="350" on="1"/>
      </contour>
    </TTGlyph>
    <TTGlyph name="d" xMin="68" yMin="-15" xMax="587" yMax="848">
      <contour>
        <pt x="232" y="-15" on="0"/>
        <pt x="125" y="61" on="0"/>
        <pt x="68" y="203" on="0"/>
        <pt x="68" y="299" on="1"/>
        <pt x="68" y="395" on="0"/>
        <pt x="125" y="537" on="0"/>
        <pt x="232" y="613" on="0"/>
        <pt x="304" y="613" on="1"/>
        <pt x="365" y="613" on="0"/>
        <pt x="448" y="561" on="0"/>
        <pt x="463" y="513" on="1"/>
        <pt x="491" y="513" on="1"/>
        <pt x="491" y="848" on="1"/>
        <pt x="587" y="848" on="1"/>
        <pt x="587" y="0" on="1"/>
        <pt x="491" y="0" on="1"/>
        <pt x="491" y="85" on="1"/>
        <pt x="463" y="85" on="1"/>
        <pt x="448" y="37" on="0"/>
        <pt x="365" y="-15" on="0"/>
        <pt x="304" y="-15" on="1"/>
      </contour>
      <contour>
        <pt x="166" y="192" on="0"/>
        <pt x="253" y="73" on="0"/>
        <pt x="331" y="73" on="1"/>
        <pt x="409" y="73" on="0"/>
        <pt x="496" y="192" on="0"/>
        <pt x="496" y="299" on="1"/>
        <pt x="496" y="406" on="0"/>
        <pt x="409" y="524" on="0"/>
        <pt x="331" y="524" on="1"/>
        <pt x="253" y="524" on="0"/>
        <pt x="166" y="406" on="0"/>
        <pt x="166" y="299" on="1"/>
      </contour>
    </TTGlyph>
    <TTGlyph name="divide" xMin="93" yMin="77" xMax="607" yMax="623">
      <component glyphName="minus" x="0" y="0" flags="0x0"/>
      <component glyphName="uni0307" x="266" y="-222" flags="0x4"/>
      <component glyphName="uni0307" x="266" y="-615" flags="0x4"/>
    </TTGlyph>
    <TTGlyph name="divide.case" xMin="93" yMin="127" xMax="607" yMax="673">
      <component glyphName="divide" x="0" y="50" flags="0x4"/>
    </TTGlyph>
    <TTGlyph name="dollar" xMin="92" yMin="-100" xMax="632" yMax="900">
      <contour>
        <pt x="207" y="97" on="0"/>
        <pt x="324" y="83" on="1"/>
        <pt x="324" y="352" on="1"/>
        <pt x="311" y="354" on="1"/>
        <pt x="101" y="382" on="0"/>
        <pt x="101" y="577" on="1"/>
        <pt x="101" y="677" on="0"/>
        <pt x="220" y="803" on="0"/>
        <pt x="324" y="813" on="1"/>
        <pt x="324" y="900" on="1"/>
        <pt x="396" y="900" on="1"/>
        <pt x="396" y="814" on="1"/>
        <pt x="501" y="805" on="0"/>
        <pt x="623" y="683" on="0"/>
        <pt x="632" y="576" on="1"/>
        <pt x="532" y="576" on="1"/>
        <pt x="518" y="702" on="0"/>
        <pt x="396" y="717" on="1"/>
        <pt x="396" y="445" on="1"/>
        <pt x="403" y="444" on="1"/>
        <pt x="613" y="416" on="0"/>
        <pt x="613" y="221" on="1"/>
        <pt x="613" y="122" on="0"/>
        <pt x="497" y="-3" on="0"/>
        <pt x="396" y="-13" on="1"/>
        <pt x="396" y="-100" on="1"/>
        <pt x="324" y="-100" on="1"/>
        <pt x="324" y="-14" on="1"/>
        <pt x="222" y="-6" on="0"/>
        <pt x="102" y="105" on="0"/>
        <pt x="92" y="204" on="1"/>
        <pt x="194" y="204" on="1"/>
      </contour>
      <contour>
        <pt x="201" y="523" on="0"/>
        <pt x="260" y="463" on="0"/>
        <pt x="321" y="455" on="1"/>
        <pt x="324" y="455" on="1"/>
        <pt x="324" y="716" on="1"/>
        <pt x="265" y="708" on="0"/>
        <pt x="201" y="635" on="0"/>
        <pt x="201" y="577" on="1"/>
      </contour>
      <contour>
        <pt x="452" y="92" on="0"/>
        <pt x="513" y="163" on="0"/>
        <pt x="513" y="221" on="1"/>
        <pt x="513" y="274" on="0"/>
        <pt x="456" y="334" on="0"/>
        <pt x="396" y="343" on="1"/>
        <pt x="396" y="84" on="1"/>
      </contour>
    </TTGlyph>
    <TTGlyph name="dollar.bold" xMin="92" yMin="-100" xMax="632" yMax="900">
      <contour>
        <pt x="209" y="81" on="0"/>
        <pt x="360" y="81" on="1"/>
        <pt x="432" y="81" on="0"/>
        <pt x="513" y="154" on="0"/>
        <pt x="513" y="221" on="1"/>
        <pt x="513" y="275" on="0"/>
        <pt x="454" y="335" on="0"/>
        <pt x="393" y="343" on="1"/>
        <pt x="311" y="354" on="1"/>
        <pt x="101" y="382" on="0"/>
        <pt x="101" y="577" on="1"/>
        <pt x="101" y="677" on="0"/>
        <pt x="220" y="803" on="0"/>
        <pt x="324" y="813" on="1"/>
        <pt x="324" y="900" on="1"/>
        <pt x="396" y="900" on="1"/>
        <pt x="396" y="814" on="1"/>
        <pt x="501" y="805" on="0"/>
        <pt x="623" y="683" on="0"/>
        <pt x="632" y="576" on="1"/>
        <pt x="532" y="576" on="1"/>
        <pt x="517" y="719" on="0"/>
        <pt x="362" y="719" on="1"/>
        <pt x="286" y="719" on="0"/>
        <pt x="201" y="644" on="0"/>
        <pt x="201" y="577" on="1"/>
        <pt x="201" y="523" on="0"/>
        <pt x="260" y="463" on="0"/>
        <pt x="321" y="455" on="1"/>
        <pt x="403" y="444" on="1"/>
        <pt x="613" y="416" on="0"/>
        <pt x="613" y="221" on="1"/>
        <pt x="613" y="122" on="0"/>
        <pt x="497" y="-3" on="0"/>
        <pt x="396" y="-13" on="1"/>
        <pt x="396" y="-100" on="1"/>
        <pt x="324" y="-100" on="1"/>
        <pt x="324" y="-14" on="1"/>
        <pt x="222" y="-6" on="0"/>
        <pt x="102" y="105" on="0"/>
        <pt x="92" y="204" on="1"/>
        <pt x="194" y="204" on="1"/>
      </contour>
    </TTGlyph>
    <TTGlyph name="dotlessi" xMin="151" yMin="0" xMax="611" yMax="598">
      <contour>
        <pt x="429" y="598" on="1"/>
        <pt x="429" y="90" on="1"/>
        <pt x="611" y="90" on="1"/>
        <pt x="611" y="0" on="1"/>
        <pt x="151" y="0" on="1"/>
        <pt x="151" y="90" on="1"/>
        <pt x="333" y="90" on="1"/>
        <pt x="333" y="508" on="1"/>
        <pt x="151" y="508" on="1"/>
        <pt x="151" y="598" on="1"/>
      </contour>
    </TTGlyph>
    <TTGlyph name="e" xMin="101" yMin="-15" xMax="615" yMax="613">
      <contour>
        <pt x="101" y="399" on="0"/>
        <pt x="164" y="538" on="0"/>
        <pt x="282" y="613" on="0"/>
        <pt x="361" y="613" on="1"/>
        <pt x="474" y="613" on="0"/>
        <pt x="599" y="456" on="0"/>
        <pt x="599" y="312" on="1"/>
        <pt x="599" y="294" on="0"/>
        <pt x="597" y="268" on="1"/>
        <pt x="196" y="268" on="1"/>
        <pt x="203" y="172" on="0"/>
        <pt x="289" y="73" on="0"/>
        <pt x="365" y="73" on="1"/>
        <pt x="422" y="73" on="0"/>
        <pt x="501" y="129" on="0"/>
        <pt x="520" y="184" on="1"/>
        <pt x="615" y="184" on="1"/>
        <pt x="590" y="89" on="0"/>
        <pt x="460" y="-15" on="0"/>
        <pt x="365" y="-15" on="1"/>
        <pt x="240" y="-15" on="0"/>
        <pt x="101" y="152" on="0"/>
        <pt x="101" y="304" on="1"/>
      </contour>
      <contour>
        <pt x="508" y="354" on="1"/>
        <pt x="500" y="437" on="0"/>
        <pt x="425" y="525" on="0"/>
        <pt x="361" y="525" on="1"/>
        <pt x="292" y="525" on="0"/>
        <pt x="208" y="436" on="0"/>
        <pt x="198" y="354" on="1"/>
      </contour>
    </TTGlyph>
    <TTGlyph name="eight" xMin="79" yMin="-15" xMax="621" yMax="815">
      <contour>
        <pt x="429" y="446" on="0"/>
        <pt x="520" y="519" on="0"/>
        <pt x="520" y="583" on="1"/>
        <pt x="520" y="646" on="0"/>
        <pt x="429" y="719" on="0"/>
        <pt x="350" y="719" on="1"/>
        <pt x="271" y="719" on="0"/>
        <pt x="180" y="646" on="0"/>
        <pt x="180" y="583" on="1"/>
        <pt x="180" y="519" on="0"/>
        <pt x="271" y="446" on="0"/>
        <pt x="350" y="446" on="1"/>
      </contour>
      <contour>
        <pt x="79" y="282" on="0"/>
        <pt x="155" y="376" on="0"/>
        <pt x="222" y="385" on="1"/>
        <pt x="222" y="413" on="1"/>
        <pt x="155" y="423" on="0"/>
        <pt x="79" y="518" on="0"/>
        <pt x="79" y="592" on="1"/>
        <pt x="79" y="696" on="0"/>
        <pt x="224" y="815" on="0"/>
        <pt x="350" y="815" on="1"/>
        <pt x="476" y="815" on="0"/>
        <pt x="621" y="696" on="0"/>
        <pt x="621" y="592" on="1"/>
        <pt x="621" y="518" on="0"/>
        <pt x="545" y="423" on="0"/>
        <pt x="478" y="413" on="1"/>
        <pt x="478" y="385" on="1"/>
        <pt x="545" y="376" on="0"/>
        <pt x="621" y="282" on="0"/>
        <pt x="621" y="208" on="1"/>
        <pt x="621" y="104" on="0"/>
        <pt x="476" y="-15" on="0"/>
        <pt x="350" y="-15" on="1"/>
        <pt x="224" y="-15" on="0"/>
        <pt x="79" y="104" on="0"/>
        <pt x="79" y="208" on="1"/>
      </contour>
      <contour>
        <pt x="180" y="154" on="0"/>
        <pt x="271" y="81" on="0"/>
        <pt x="350" y="81" on="1"/>
        <pt x="429" y="81" on="0"/>
        <pt x="520" y="154" on="0"/>
        <pt x="520" y="216" on="1"/>
        <pt x="520" y="279" on="0"/>
        <pt x="429" y="352" on="0"/>
        <pt x="350" y="352" on="1"/>
        <pt x="271" y="352" on="0"/>
        <pt x="180" y="279" on="0"/>
        <pt x="180" y="216" on="1"/>
      </contour>
    </TTGlyph>
    <TTGlyph name="ellipsis" xMin="51" yMin="-8" xMax="649" yMax="164">
      <contour>
        <pt x="316" y="-8" on="0"/>
        <pt x="280" y="37" on="0"/>
        <pt x="280" y="78" on="1"/>
        <pt x="280" y="119" on="0"/>
        <pt x="316" y="164" on="0"/>
        <pt x="350" y="164" on="1"/>
        <pt x="384" y="164" on="0"/>
        <pt x="420" y="119" on="0"/>
        <pt x="420" y="78" on="1"/>
        <pt x="420" y="37" on="0"/>
        <pt x="384" y="-8" on="0"/>
        <pt x="350" y="-8" on="1"/>
      </contour>
      <contour>
        <pt x="51" y="119" on="0"/>
        <pt x="87" y="164" on="0"/>
        <pt x="121" y="164" on="1"/>
        <pt x="155" y="164" on="0"/>
        <pt x="191" y="119" on="0"/>
        <pt x="191" y="78" on="1"/>
        <pt x="191" y="37" on="0"/>
        <pt x="155" y="-8" on="0"/>
        <pt x="121" y="-8" on="1"/>
        <pt x="87" y="-8" on="0"/>
        <pt x="51" y="37" on="0"/>
        <pt x="51" y="78" on="1"/>
      </contour>
      <contour>
        <pt x="509" y="119" on="0"/>
        <pt x="545" y="164" on="0"/>
        <pt x="579" y="164" on="1"/>
        <pt x="613" y="164" on="0"/>
        <pt x="649" y="119" on="0"/>
        <pt x="649" y="78" on="1"/>
        <pt x="649" y="37" on="0"/>
        <pt x="613" y="-8" on="0"/>
        <pt x="579" y="-8" on="1"/>
        <pt x="545" y="-8" on="0"/>
        <pt x="509" y="37" on="0"/>
        <pt x="509" y="78" on="1"/>
      </contour>
    </TTGlyph>
    <TTGlyph name="emdash" xMin="45" yMin="307" xMax="655" yMax="393">
      <contour>
        <pt x="655" y="393" on="1"/>
        <pt x="655" y="307" on="1"/>
        <pt x="45" y="307" on="1"/>
        <pt x="45" y="393" on="1"/>
      </contour>
    </TTGlyph>
    <TTGlyph name="emdash.case" xMin="45" yMin="357" xMax="655" yMax="443">
      <component glyphName="emdash" x="0" y="50" flags="0x4"/>
    </TTGlyph>
    <TTGlyph name="endash" xMin="75" yMin="307" xMax="625" yMax="393">
      <contour>
        <pt x="625" y="393" on="1"/>
        <pt x="625" y="307" on="1"/>
        <pt x="75" y="307" on="1"/>
        <pt x="75" y="393" on="1"/>
      </contour>
    </TTGlyph>
    <TTGlyph name="endash.case" xMin="75" yMin="357" xMax="625" yMax="443">
      <component glyphName="endash" x="0" y="50" flags="0x4"/>
    </TTGlyph>
    <TTGlyph name="equal" xMin="90" yMin="170" xMax="610" yMax="530">
      <contour>
        <pt x="90" y="530" on="1"/>
        <pt x="610" y="530" on="1"/>
        <pt x="610" y="443" on="1"/>
        <pt x="90" y="443" on="1"/>
      </contour>
      <contour>
        <pt x="90" y="257" on="1"/>
        <pt x="610" y="257" on="1"/>
        <pt x="610" y="170" on="1"/>
        <pt x="90" y="170" on="1"/>
      </contour>
    </TTGlyph>
    <TTGlyph name="equal.case" xMin="90" yMin="220" xMax="610" yMax="580">
      <component glyphName="equal" x="0" y="50" flags="0x4"/>
    </TTGlyph>
    <TTGlyph name="exclam" xMin="271" yMin="-7" xMax="429" yMax="800">
      <contour>
        <pt x="400" y="800" on="1"/>
        <pt x="400" y="218" on="1"/>
        <pt x="300" y="218" on="1"/>
        <pt x="300" y="800" on="1"/>
      </contour>
      <contour>
        <pt x="271" y="103" on="0"/>
        <pt x="312" y="141" on="0"/>
        <pt x="350" y="141" on="1"/>
        <pt x="388" y="141" on="0"/>
        <pt x="429" y="103" on="0"/>
        <pt x="429" y="67" on="1"/>
        <pt x="429" y="32" on="0"/>
        <pt x="388" y="-7" on="0"/>
        <pt x="350" y="-7" on="1"/>
        <pt x="312" y="-7" on="0"/>
        <pt x="271" y="32" on="0"/>
        <pt x="271" y="67" on="1"/>
      </contour>
    </TTGlyph>
    <TTGlyph name="f" xMin="138" yMin="0" xMax="664" yMax="863">
      <contour>
        <pt x="272" y="0" on="1"/>
        <pt x="272" y="508" on="1"/>
        <pt x="138" y="508" on="1"/>
        <pt x="138" y="598" on="1"/>
        <pt x="272" y="598" on="1"/>
        <pt x="272" y="667" on="1"/>
        <pt x="272" y="761" on="0"/>
        <pt x="373" y="863" on="0"/>
        <pt x="466" y="863" on="1"/>
        <pt x="553" y="863" on="0"/>
        <pt x="656" y="773" on="0"/>
        <pt x="664" y="690" on="1"/>
        <pt x="568" y="690" on="1"/>
        <pt x="557" y="773" on="0"/>
        <pt x="466" y="773" on="1"/>
        <pt x="418" y="773" on="0"/>
        <pt x="368" y="719" on="0"/>
        <pt x="368" y="667" on="1"/>
        <pt x="368" y="598" on="1"/>
        <pt x="596" y="598" on="1"/>
        <pt x="596" y="508" on="1"/>
        <pt x="368" y="508" on="1"/>
        <pt x="368" y="0" on="1"/>
      </contour>
    </TTGlyph>
    <TTGlyph name="five" xMin="91" yMin="-15" xMax="624" yMax="800">
      <contour>
        <pt x="608" y="800" on="1"/>
        <pt x="608" y="704" on="1"/>
        <pt x="222" y="704" on="1"/>
        <pt x="222" y="453" on="1"/>
        <pt x="250" y="453" on="1"/>
        <pt x="261" y="489" on="0"/>
        <pt x="337" y="530" on="0"/>
        <pt x="393" y="530" on="1"/>
        <pt x="502" y="530" on="0"/>
        <pt x="624" y="389" on="0"/>
        <pt x="624" y="262" on="1"/>
        <pt x="624" y="131" on="0"/>
        <pt x="485" y="-15" on="0"/>
        <pt x="360" y="-15" on="1"/>
        <pt x="244" y="-15" on="0"/>
        <pt x="102" y="118" on="0"/>
        <pt x="91" y="238" on="1"/>
        <pt x="198" y="238" on="1"/>
        <pt x="207" y="164" on="0"/>
        <pt x="292" y="81" on="0"/>
        <pt x="360" y="81" on="1"/>
        <pt x="437" y="81" on="0"/>
        <pt x="522" y="177" on="0"/>
        <pt x="522" y="262" on="1"/>
        <pt x="522" y="345" on="0"/>
        <pt x="438" y="437" on="0"/>
        <pt x="363" y="437" on="1"/>
        <pt x="311" y="437" on="0"/>
        <pt x="231" y="388" on="0"/>
        <pt x="212" y="344" on="1"/>
        <pt x="122" y="344" on="1"/>
        <pt x="122" y="800" on="1"/>
      </contour>
    </TTGlyph>
    <TTGlyph name="four" xMin="67" yMin="0" xMax="635" yMax="800">
      <contour>
        <pt x="516" y="334" on="1"/>
        <pt x="635" y="334" on="1"/>
        <pt x="635" y="238" on="1"/>
        <pt x="516" y="238" on="1"/>
        <pt x="516" y="0" on="1"/>
        <pt x="417" y="0" on="1"/>
        <pt x="417" y="238" on="1"/>
        <pt x="67" y="238" on="1"/>
        <pt x="67" y="380" on="1"/>
        <pt x="334" y="800" on="1"/>
        <pt x="516" y="800" on="1"/>
      </contour>
      <contour>
        <pt x="417" y="334" on="1"/>
        <pt x="417" y="753" on="1"/>
        <pt x="148" y="334" on="1"/>
      </contour>
    </TTGlyph>
    <TTGlyph name="g" xMin="82" yMin="-215" xMax="580" yMax="613">
      <contour>
        <pt x="580" y="-92" on="0"/>
        <pt x="446" y="-215" on="0"/>
        <pt x="332" y="-215" on="1"/>
        <pt x="225" y="-215" on="0"/>
        <pt x="91" y="-114" on="0"/>
        <pt x="82" y="-27" on="1"/>
        <pt x="185" y="-27" on="1"/>
        <pt x="193" y="-74" on="0"/>
        <pt x="270" y="-125" on="0"/>
        <pt x="332" y="-125" on="1"/>
        <pt x="403" y="-125" on="0"/>
        <pt x="484" y="-52" on="0"/>
        <pt x="484" y="14" on="1"/>
        <pt x="484" y="123" on="1"/>
        <pt x="456" y="123" on="1"/>
        <pt x="442" y="79" on="0"/>
        <pt x="365" y="31" on="0"/>
        <pt x="309" y="31" on="1"/>
        <pt x="240" y="31" on="0"/>
        <pt x="138" y="102" on="0"/>
        <pt x="83" y="233" on="0"/>
        <pt x="83" y="322" on="1"/>
        <pt x="83" y="411" on="0"/>
        <pt x="138" y="542" on="0"/>
        <pt x="240" y="613" on="0"/>
        <pt x="309" y="613" on="1"/>
        <pt x="365" y="613" on="0"/>
        <pt x="442" y="565" on="0"/>
        <pt x="456" y="521" on="1"/>
        <pt x="484" y="521" on="1"/>
        <pt x="484" y="598" on="1"/>
        <pt x="580" y="598" on="1"/>
        <pt x="580" y="14" on="1"/>
      </contour>
      <contour>
        <pt x="181" y="227" on="0"/>
        <pt x="262" y="120" on="0"/>
        <pt x="335" y="120" on="1"/>
        <pt x="409" y="120" on="0"/>
        <pt x="490" y="226" on="0"/>
        <pt x="490" y="322" on="1"/>
        <pt x="490" y="418" on="0"/>
        <pt x="409" y="524" on="0"/>
        <pt x="335" y="524" on="1"/>
        <pt x="262" y="524" on="0"/>
        <pt x="181" y="417" on="0"/>
        <pt x="181" y="322" on="1"/>
      </contour>
    </TTGlyph>
    <TTGlyph name="grave" xMin="198" yMin="584" xMax="502" yMax="848">
      <contour>
        <pt x="326" y="848" on="1"/>
        <pt x="502" y="584" on="1"/>
        <pt x="410" y="584" on="1"/>
        <pt x="198" y="848" on="1"/>
      </contour>
    </TTGlyph>
    <TTGlyph name="greater" xMin="120" yMin="39" xMax="580" yMax="661">
      <contour>
        <pt x="120" y="39" on="1"/>
        <pt x="120" y="139" on="1"/>
        <pt x="521" y="345" on="1"/>
        <pt x="521" y="355" on="1"/>
        <pt x="120" y="561" on="1"/>
        <pt x="120" y="661" on="1"/>
        <pt x="580" y="420" on="1"/>
        <pt x="580" y="280" on="1"/>
      </contour>
    </TTGlyph>
    <TTGlyph name="greater.case" xMin="120" yMin="89" xMax="580" yMax="711">
      <component glyphName="greater" x="0" y="50" flags="0x4"/>
    </TTGlyph>
    <TTGlyph name="guillemotleft" xMin="101" yMin="54" xMax="575" yMax="646">
      <contour>
        <pt x="101" y="280" on="1"/>
        <pt x="101" y="418" on="1"/>
        <pt x="365" y="646" on="1"/>
        <pt x="365" y="525" on="1"/>
        <pt x="155" y="351" on="1"/>
        <pt x="365" y="178" on="1"/>
        <pt x="365" y="54" on="1"/>
      </contour>
      <contour>
        <pt x="351" y="415" on="1"/>
        <pt x="575" y="584" on="1"/>
        <pt x="575" y="473" on="1"/>
        <pt x="407" y="351" on="1"/>
        <pt x="575" y="231" on="1"/>
        <pt x="575" y="116" on="1"/>
        <pt x="351" y="283" on="1"/>
      </contour>
    </TTGlyph>
    <TTGlyph name="guillemotright" xMin="125" yMin="54" xMax="599" yMax="646">
      <contour>
        <pt x="335" y="178" on="1"/>
        <pt x="545" y="351" on="1"/>
        <pt x="335" y="525" on="1"/>
        <pt x="335" y="646" on="1"/>
        <pt x="599" y="418" on="1"/>
        <pt x="599" y="280" on="1"/>
        <pt x="335" y="54" on="1"/>
      </contour>
      <contour>
        <pt x="125" y="231" on="1"/>
        <pt x="293" y="351" on="1"/>
        <pt x="125" y="473" on="1"/>
        <pt x="125" y="584" on="1"/>
        <pt x="349" y="415" on="1"/>
        <pt x="349" y="283" on="1"/>
        <pt x="125" y="116" on="1"/>
      </contour>
    </TTGlyph>
    <TTGlyph name="h" xMin="120" yMin="0" xMax="592" yMax="848">
      <contour>
        <pt x="216" y="848" on="1"/>
        <pt x="216" y="518" on="1"/>
        <pt x="244" y="518" on="1"/>
        <pt x="258" y="563" on="0"/>
        <pt x="337" y="613" on="0"/>
        <pt x="394" y="613" on="1"/>
        <pt x="485" y="613" on="0"/>
        <pt x="592" y="491" on="0"/>
        <pt x="592" y="387" on="1"/>
        <pt x="592" y="0" on="1"/>
        <pt x="496" y="0" on="1"/>
        <pt x="496" y="361" on="1"/>
        <pt x="496" y="440" on="0"/>
        <pt x="424" y="523" on="0"/>
        <pt x="356" y="523" on="1"/>
        <pt x="288" y="523" on="0"/>
        <pt x="216" y="440" on="0"/>
        <pt x="216" y="361" on="1"/>
        <pt x="216" y="0" on="1"/>
        <pt x="120" y="0" on="1"/>
        <pt x="120" y="848" on="1"/>
      </contour>
    </TTGlyph>
    <TTGlyph name="hyphen" xMin="93" yMin="306" xMax="607" yMax="394">
      <component glyphName="minus" x="0" y="0" flags="0x0"/>
    </TTGlyph>
    <TTGlyph name="hyphen.case" xMin="93" yMin="356" xMax="607" yMax="444">
      <component glyphName="minus.case" x="0" y="0" flags="0x0"/>
    </TTGlyph>
    <TTGlyph name="i" xMin="151" yMin="0" xMax="611" yMax="843">
      <component glyphName="dotlessi" x="0" y="0" flags="0x0"/>
      <component glyphName="uni0307" x="297" y="-2" flags="0x4"/>
    </TTGlyph>
    <TTGlyph name="j" xMin="103" yMin="-215" xMax="521" yMax="843">
      <component glyphName="uni0237" x="0" y="0" flags="0x0"/>
      <component glyphName="uni0307" x="363" y="-2" flags="0x4"/>
    </TTGlyph>
    <TTGlyph name="k" xMin="154" yMin="0" xMax="649" yMax="848">
      <contour>
        <pt x="250" y="848" on="1"/>
        <pt x="250" y="321" on="1"/>
        <pt x="528" y="598" on="1"/>
        <pt x="649" y="598" on="1"/>
        <pt x="342" y="296" on="1"/>
        <pt x="639" y="0" on="1"/>
        <pt x="512" y="0" on="1"/>
        <pt x="250" y="263" on="1"/>
        <pt x="250" y="0" on="1"/>
        <pt x="154" y="0" on="1"/>
        <pt x="154" y="848" on="1"/>
      </contour>
    </TTGlyph>
    <TTGlyph name="l" xMin="136" yMin="0" xMax="596" yMax="848">
      <contour>
        <pt x="414" y="848" on="1"/>
        <pt x="414" y="90" on="1"/>
        <pt x="596" y="90" on="1"/>
        <pt x="596" y="0" on="1"/>
        <pt x="136" y="0" on="1"/>
        <pt x="136" y="90" on="1"/>
        <pt x="318" y="90" on="1"/>
        <pt x="318" y="758" on="1"/>
        <pt x="136" y="758" on="1"/>
        <pt x="136" y="848" on="1"/>
      </contour>
    </TTGlyph>
    <TTGlyph name="less" xMin="120" yMin="39" xMax="580" yMax="661">
      <contour>
        <pt x="580" y="661" on="1"/>
        <pt x="580" y="561" on="1"/>
        <pt x="179" y="355" on="1"/>
        <pt x="179" y="345" on="1"/>
        <pt x="580" y="139" on="1"/>
        <pt x="580" y="39" on="1"/>
        <pt x="120" y="280" on="1"/>
        <pt x="120" y="420" on="1"/>
      </contour>
    </TTGlyph>
    <TTGlyph name="less.case" xMin="120" yMin="89" xMax="580" yMax="711">
      <contour>
        <pt x="580" y="711" on="1"/>
        <pt x="580" y="611" on="1"/>
        <pt x="179" y="405" on="1"/>
        <pt x="179" y="395" on="1"/>
        <pt x="580" y="189" on="1"/>
        <pt x="580" y="89" on="1"/>
        <pt x="120" y="330" on="1"/>
        <pt x="120" y="470" on="1"/>
      </contour>
    </TTGlyph>
    <TTGlyph name="m" xMin="80" yMin="0" xMax="624" yMax="613">
      <contour>
        <pt x="176" y="598" on="1"/>
        <pt x="176" y="543" on="1"/>
        <pt x="206" y="543" on="1"/>
        <pt x="213" y="577" on="0"/>
        <pt x="257" y="613" on="0"/>
        <pt x="292" y="613" on="1"/>
        <pt x="326" y="613" on="0"/>
        <pt x="374" y="575" on="0"/>
        <pt x="386" y="539" on="1"/>
        <pt x="414" y="539" on="1"/>
        <pt x="422" y="575" on="0"/>
        <pt x="473" y="613" on="0"/>
        <pt x="513" y="613" on="1"/>
        <pt x="567" y="613" on="0"/>
        <pt x="624" y="530" on="0"/>
        <pt x="624" y="452" on="1"/>
        <pt x="624" y="0" on="1"/>
        <pt x="528" y="0" on="1"/>
        <pt x="528" y="429" on="1"/>
        <pt x="528" y="519" on="0"/>
        <pt x="464" y="519" on="1"/>
        <pt x="400" y="519" on="0"/>
        <pt x="400" y="429" on="1"/>
        <pt x="400" y="0" on="1"/>
        <pt x="304" y="0" on="1"/>
        <pt x="304" y="429" on="1"/>
        <pt x="304" y="519" on="0"/>
        <pt x="240" y="519" on="1"/>
        <pt x="176" y="519" on="0"/>
        <pt x="176" y="429" on="1"/>
        <pt x="176" y="0" on="1"/>
        <pt x="80" y="0" on="1"/>
        <pt x="80" y="598" on="1"/>
      </contour>
    </TTGlyph>
    <TTGlyph name="minus" xMin="93" yMin="306" xMax="607" yMax="394">
      <contour>
        <pt x="93" y="394" on="1"/>
        <pt x="607" y="394" on="1"/>
        <pt x="607" y="306" on="1"/>
        <pt x="93" y="306" on="1"/>
      </contour>
    </TTGlyph>
    <TTGlyph name="minus.case" xMin="93" yMin="356" xMax="607" yMax="444">
      <component glyphName="minus" x="0" y="50" flags="0x4"/>
    </TTGlyph>
    <TTGlyph name="multiply" xMin="118" yMin="118" xMax="582" yMax="582">
      <contour>
        <pt x="350" y="292" on="1"/>
        <pt x="176" y="118" on="1"/>
        <pt x="118" y="176" on="1"/>
        <pt x="292" y="350" on="1"/>
        <pt x="118" y="524" on="1"/>
        <pt x="176" y="582" on="1"/>
        <pt x="350" y="408" on="1"/>
        <pt x="524" y="582" on="1"/>
        <pt x="582" y="524" on="1"/>
        <pt x="408" y="350" on="1"/>
        <pt x="582" y="176" on="1"/>
        <pt x="524" y="118" on="1"/>
      </contour>
    </TTGlyph>
    <TTGlyph name="multiply.case" xMin="118" yMin="168" xMax="582" yMax="632">
      <component glyphName="multiply" x="0" y="50" flags="0x4"/>
    </TTGlyph>
    <TTGlyph name="n" xMin="120" yMin="0" xMax="592" yMax="613">
      <contour>
        <pt x="216" y="598" on="1"/>
        <pt x="216" y="518" on="1"/>
        <pt x="244" y="518" on="1"/>
        <pt x="258" y="563" on="0"/>
        <pt x="337" y="613" on="0"/>
        <pt x="394" y="613" on="1"/>
        <pt x="485" y="613" on="0"/>
        <pt x="592" y="491" on="0"/>
        <pt x="592" y="387" on="1"/>
        <pt x="592" y="0" on="1"/>
        <pt x="496" y="0" on="1"/>
        <pt x="496" y="361" on="1"/>
        <pt x="496" y="440" on="0"/>
        <pt x="424" y="523" on="0"/>
        <pt x="356" y="523" on="1"/>
        <pt x="288" y="523" on="0"/>
        <pt x="216" y="440" on="0"/>
        <pt x="216" y="361" on="1"/>
        <pt x="216" y="0" on="1"/>
        <pt x="120" y="0" on="1"/>
        <pt x="120" y="598" on="1"/>
      </contour>
    </TTGlyph>
    <TTGlyph name="nine" xMin="77" yMin="0" xMax="623" yMax="815">
      <contour>
        <pt x="432" y="815" on="0"/>
        <pt x="555" y="748" on="0"/>
        <pt x="623" y="626" on="0"/>
        <pt x="623" y="546" on="1"/>
        <pt x="623" y="485" on="0"/>
        <pt x="584" y="371" on="0"/>
        <pt x="543" y="312" on="1"/>
        <pt x="333" y="0" on="1"/>
        <pt x="213" y="0" on="1"/>
        <pt x="426" y="306" on="1"/>
        <pt x="404" y="322" on="1"/>
        <pt x="391" y="309" on="0"/>
        <pt x="337" y="293" on="0"/>
        <pt x="306" y="293" on="1"/>
        <pt x="240" y="293" on="0"/>
        <pt x="136" y="358" on="0"/>
        <pt x="77" y="473" on="0"/>
        <pt x="77" y="546" on="1"/>
        <pt x="77" y="626" on="0"/>
        <pt x="145" y="748" on="0"/>
        <pt x="269" y="815" on="0"/>
        <pt x="351" y="815" on="1"/>
      </contour>
      <contour>
        <pt x="179" y="467" on="0"/>
        <pt x="273" y="372" on="0"/>
        <pt x="350" y="372" on="1"/>
        <pt x="427" y="372" on="0"/>
        <pt x="521" y="467" on="0"/>
        <pt x="521" y="546" on="1"/>
        <pt x="521" y="624" on="0"/>
        <pt x="427" y="719" on="0"/>
        <pt x="350" y="719" on="1"/>
        <pt x="273" y="719" on="0"/>
        <pt x="179" y="624" on="0"/>
        <pt x="179" y="546" on="1"/>
      </contour>
    </TTGlyph>
    <TTGlyph name="notequal" xMin="90" yMin="10" xMax="610" yMax="690">
      <contour>
        <pt x="90" y="530" on="1"/>
        <pt x="390" y="530" on="1"/>
        <pt x="465" y="690" on="1"/>
        <pt x="553" y="690" on="1"/>
        <pt x="478" y="530" on="1"/>
        <pt x="610" y="530" on="1"/>
        <pt x="610" y="443" on="1"/>
        <pt x="437" y="443" on="1"/>
        <pt x="351" y="257" on="1"/>
        <pt x="610" y="257" on="1"/>
        <pt x="610" y="170" on="1"/>
        <pt x="310" y="170" on="1"/>
        <pt x="235" y="10" on="1"/>
        <pt x="147" y="10" on="1"/>
        <pt x="222" y="170" on="1"/>
        <pt x="90" y="170" on="1"/>
        <pt x="90" y="257" on="1"/>
        <pt x="263" y="257" on="1"/>
        <pt x="349" y="443" on="1"/>
        <pt x="90" y="443" on="1"/>
      </contour>
    </TTGlyph>
    <TTGlyph name="notequal.case" xMin="90" yMin="60" xMax="610" yMax="740">
      <component glyphName="notequal" x="0" y="50" flags="0x4"/>
    </TTGlyph>
    <TTGlyph name="numbersign" xMin="48" yMin="0" xMax="652" yMax="800">
      <contour>
        <pt x="321" y="594" on="1"/>
        <pt x="456" y="594" on="1"/>
        <pt x="496" y="800" on="1"/>
        <pt x="576" y="800" on="1"/>
        <pt x="536" y="594" on="1"/>
        <pt x="652" y="594" on="1"/>
        <pt x="652" y="510" on="1"/>
        <pt x="519" y="510" on="1"/>
        <pt x="476" y="290" on="1"/>
        <pt x="598" y="290" on="1"/>
        <pt x="598" y="206" on="1"/>
        <pt x="459" y="206" on="1"/>
        <pt x="419" y="0" on="1"/>
        <pt x="339" y="0" on="1"/>
        <pt x="379" y="206" on="1"/>
        <pt x="244" y="206" on="1"/>
        <pt x="204" y="0" on="1"/>
        <pt x="124" y="0" on="1"/>
        <pt x="164" y="206" on="1"/>
        <pt x="48" y="206" on="1"/>
        <pt x="48" y="290" on="1"/>
        <pt x="181" y="290" on="1"/>
        <pt x="224" y="510" on="1"/>
        <pt x="102" y="510" on="1"/>
        <pt x="102" y="594" on="1"/>
        <pt x="241" y="594" on="1"/>
        <pt x="281" y="800" on="1"/>
        <pt x="361" y="800" on="1"/>
      </contour>
      <contour>
        <pt x="396" y="290" on="1"/>
        <pt x="439" y="510" on="1"/>
        <pt x="304" y="510" on="1"/>
        <pt x="261" y="290" on="1"/>
      </contour>
    </TTGlyph>
    <TTGlyph name="o" xMin="84" yMin="-15" xMax="616" yMax="613">
      <contour>
        <pt x="269" y="-15" on="0"/>
        <pt x="149" y="61" on="0"/>
        <pt x="84" y="203" on="0"/>
        <pt x="84" y="300" on="1"/>
        <pt x="84" y="396" on="0"/>
        <pt x="149" y="537" on="0"/>
        <pt x="269" y="613" on="0"/>
        <pt x="350" y="613" on="1"/>
        <pt x="431" y="613" on="0"/>
        <pt x="551" y="537" on="0"/>
        <pt x="616" y="396" on="0"/>
        <pt x="616" y="300" on="1"/>
        <pt x="616" y="203" on="0"/>
        <pt x="551" y="61" on="0"/>
        <pt x="431" y="-15" on="0"/>
        <pt x="350" y="-15" on="1"/>
      </contour>
      <contour>
        <pt x="180" y="193" on="0"/>
        <pt x="269" y="75" on="0"/>
        <pt x="350" y="75" on="1"/>
        <pt x="431" y="75" on="0"/>
        <pt x="520" y="193" on="0"/>
        <pt x="520" y="300" on="1"/>
        <pt x="520" y="406" on="0"/>
        <pt x="431" y="523" on="0"/>
        <pt x="350" y="523" on="1"/>
        <pt x="269" y="523" on="0"/>
        <pt x="180" y="406" on="0"/>
        <pt x="180" y="300" on="1"/>
      </contour>
    </TTGlyph>
    <TTGlyph name="one" xMin="110" yMin="0" xMax="643" yMax="800">
      <contour>
        <pt x="437" y="90" on="1"/>
        <pt x="643" y="90" on="1"/>
        <pt x="643" y="0" on="1"/>
        <pt x="110" y="0" on="1"/>
        <pt x="110" y="90" on="1"/>
        <pt x="337" y="90" on="1"/>
        <pt x="337" y="719" on="1"/>
        <pt x="110" y="565" on="1"/>
        <pt x="110" y="683" on="1"/>
        <pt x="293" y="800" on="1"/>
        <pt x="437" y="800" on="1"/>
      </contour>
    </TTGlyph>
    <TTGlyph name="p" xMin="113" yMin="-200" xMax="632" yMax="613">
      <contour>
        <pt x="468" y="613" on="0"/>
        <pt x="575" y="537" on="0"/>
        <pt x="632" y="395" on="0"/>
        <pt x="632" y="299" on="1"/>
        <pt x="632" y="203" on="0"/>
        <pt x="575" y="61" on="0"/>
        <pt x="468" y="-15" on="0"/>
        <pt x="396" y="-15" on="1"/>
        <pt x="335" y="-15" on="0"/>
        <pt x="252" y="37" on="0"/>
        <pt x="237" y="85" on="1"/>
        <pt x="209" y="85" on="1"/>
        <pt x="209" y="-200" on="1"/>
        <pt x="113" y="-200" on="1"/>
        <pt x="113" y="598" on="1"/>
        <pt x="209" y="598" on="1"/>
        <pt x="209" y="513" on="1"/>
        <pt x="237" y="513" on="1"/>
        <pt x="252" y="561" on="0"/>
        <pt x="335" y="613" on="0"/>
        <pt x="396" y="613" on="1"/>
      </contour>
      <contour>
        <pt x="204" y="192" on="0"/>
        <pt x="291" y="73" on="0"/>
        <pt x="369" y="73" on="1"/>
        <pt x="447" y="73" on="0"/>
        <pt x="534" y="192" on="0"/>
        <pt x="534" y="299" on="1"/>
        <pt x="534" y="406" on="0"/>
        <pt x="447" y="524" on="0"/>
        <pt x="369" y="524" on="1"/>
        <pt x="291" y="524" on="0"/>
        <pt x="204" y="406" on="0"/>
        <pt x="204" y="299" on="1"/>
      </contour>
    </TTGlyph>
    <TTGlyph name="parenleft" xMin="250" yMin="-146" xMax="550" yMax="906">
      <contour>
        <pt x="452" y="765" on="0"/>
        <pt x="346" y="539" on="0"/>
        <pt x="346" y="384" on="1"/>
        <pt x="346" y="226" on="0"/>
        <pt x="452" y="-5" on="0"/>
        <pt x="550" y="-60" on="1"/>
        <pt x="550" y="-146" on="1"/>
        <pt x="457" y="-104" on="0"/>
        <pt x="322" y="52" on="0"/>
        <pt x="250" y="262" on="0"/>
        <pt x="250" y="383" on="1"/>
        <pt x="250" y="504" on="0"/>
        <pt x="322" y="711" on="0"/>
        <pt x="457" y="865" on="0"/>
        <pt x="550" y="906" on="1"/>
        <pt x="550" y="820" on="1"/>
      </contour>
    </TTGlyph>
    <TTGlyph name="parenright" xMin="150" yMin="-146" xMax="450" yMax="906">
      <contour>
        <pt x="243" y="865" on="0"/>
        <pt x="378" y="711" on="0"/>
        <pt x="450" y="504" on="0"/>
        <pt x="450" y="383" on="1"/>
        <pt x="450" y="262" on="0"/>
        <pt x="378" y="52" on="0"/>
        <pt x="243" y="-104" on="0"/>
        <pt x="150" y="-146" on="1"/>
        <pt x="150" y="-60" on="1"/>
        <pt x="248" y="-5" on="0"/>
        <pt x="354" y="226" on="0"/>
        <pt x="354" y="384" on="1"/>
        <pt x="354" y="539" on="0"/>
        <pt x="248" y="765" on="0"/>
        <pt x="150" y="820" on="1"/>
        <pt x="150" y="906" on="1"/>
      </contour>
    </TTGlyph>
    <TTGlyph name="percent" xMin="49" yMin="-15" xMax="651" yMax="815">
      <contour>
        <pt x="49" y="229" on="1"/>
        <pt x="651" y="657" on="1"/>
        <pt x="651" y="571" on="1"/>
        <pt x="49" y="143" on="1"/>
      </contour>
      <contour>
        <pt x="65" y="723" on="0"/>
        <pt x="140" y="815" on="0"/>
        <pt x="211" y="815" on="1"/>
        <pt x="282" y="815" on="0"/>
        <pt x="358" y="724" on="0"/>
        <pt x="358" y="638" on="1"/>
        <pt x="358" y="552" on="0"/>
        <pt x="282" y="460" on="0"/>
        <pt x="211" y="460" on="1"/>
        <pt x="140" y="460" on="0"/>
        <pt x="65" y="552" on="0"/>
        <pt x="65" y="638" on="1"/>
      </contour>
      <contour>
        <pt x="150" y="592" on="0"/>
        <pt x="182" y="543" on="0"/>
        <pt x="211" y="543" on="1"/>
        <pt x="241" y="543" on="0"/>
        <pt x="273" y="592" on="0"/>
        <pt x="273" y="638" on="1"/>
        <pt x="273" y="684" on="0"/>
        <pt x="241" y="732" on="0"/>
        <pt x="211" y="732" on="1"/>
        <pt x="182" y="732" on="0"/>
        <pt x="150" y="684" on="0"/>
        <pt x="150" y="638" on="1"/>
      </contour>
      <contour>
        <pt x="342" y="248" on="0"/>
        <pt x="418" y="340" on="0"/>
        <pt x="489" y="340" on="1"/>
        <pt x="560" y="340" on="0"/>
        <pt x="635" y="248" on="0"/>
        <pt x="635" y="162" on="1"/>
        <pt x="635" y="77" on="0"/>
        <pt x="560" y="-15" on="0"/>
        <pt x="489" y="-15" on="1"/>
        <pt x="418" y="-15" on="0"/>
        <pt x="342" y="76" on="0"/>
        <pt x="342" y="162" on="1"/>
      </contour>
      <contour>
        <pt x="427" y="116" on="0"/>
        <pt x="459" y="68" on="0"/>
        <pt x="489" y="68" on="1"/>
        <pt x="518" y="68" on="0"/>
        <pt x="550" y="116" on="0"/>
        <pt x="550" y="162" on="1"/>
        <pt x="550" y="208" on="0"/>
        <pt x="518" y="257" on="0"/>
        <pt x="489" y="257" on="1"/>
        <pt x="459" y="257" on="0"/>
        <pt x="427" y="208" on="0"/>
        <pt x="427" y="162" on="1"/>
      </contour>
    </TTGlyph>
    <TTGlyph name="percent.cv01" xMin="65" yMin="-15" xMax="635" yMax="815">
      <contour>
        <pt x="415" y="-15" on="0"/>
        <pt x="342" y="88" on="0"/>
        <pt x="342" y="194" on="1"/>
        <pt x="342" y="298" on="0"/>
        <pt x="415" y="400" on="0"/>
        <pt x="489" y="400" on="1"/>
        <pt x="635" y="400" on="0"/>
        <pt x="635" y="194" on="1"/>
        <pt x="635" y="88" on="0"/>
        <pt x="563" y="-15" on="0"/>
        <pt x="489" y="-15" on="1"/>
      </contour>
      <contour>
        <pt x="65" y="712" on="0"/>
        <pt x="137" y="815" on="0"/>
        <pt x="211" y="815" on="1"/>
        <pt x="285" y="815" on="0"/>
        <pt x="358" y="712" on="0"/>
        <pt x="358" y="606" on="1"/>
        <pt x="358" y="502" on="0"/>
        <pt x="285" y="400" on="0"/>
        <pt x="211" y="400" on="1"/>
        <pt x="65" y="400" on="0"/>
        <pt x="65" y="606" on="1"/>
      </contour>
      <contour>
        <pt x="237" y="340" on="1"/>
        <pt x="311" y="340" on="1"/>
        <pt x="174" y="0" on="1"/>
        <pt x="95" y="0" on="1"/>
      </contour>
      <contour>
        <pt x="150" y="483" on="0"/>
        <pt x="211" y="483" on="1"/>
        <pt x="273" y="483" on="0"/>
        <pt x="273" y="606" on="1"/>
        <pt x="273" y="732" on="0"/>
        <pt x="211" y="732" on="1"/>
        <pt x="150" y="732" on="0"/>
        <pt x="150" y="606" on="1"/>
      </contour>
      <contour>
        <pt x="526" y="800" on="1"/>
        <pt x="605" y="800" on="1"/>
        <pt x="463" y="460" on="1"/>
        <pt x="389" y="460" on="1"/>
      </contour>
      <contour>
        <pt x="427" y="68" on="0"/>
        <pt x="489" y="68" on="1"/>
        <pt x="550" y="68" on="0"/>
        <pt x="550" y="194" on="1"/>
        <pt x="550" y="317" on="0"/>
        <pt x="489" y="317" on="1"/>
        <pt x="427" y="317" on="0"/>
        <pt x="427" y="194" on="1"/>
      </contour>
    </TTGlyph>
    <TTGlyph name="percent.cv02" xMin="65" yMin="-18" xMax="635" yMax="818">
      <contour>
        <pt x="418" y="-15" on="0"/>
        <pt x="342" y="76" on="0"/>
        <pt x="342" y="162" on="1"/>
        <pt x="342" y="248" on="0"/>
        <pt x="418" y="340" on="0"/>
        <pt x="489" y="340" on="1"/>
        <pt x="560" y="340" on="0"/>
        <pt x="635" y="248" on="0"/>
        <pt x="635" y="162" on="1"/>
        <pt x="635" y="77" on="0"/>
        <pt x="560" y="-15" on="0"/>
        <pt x="489" y="-15" on="1"/>
      </contour>
      <contour>
        <pt x="65" y="723" on="0"/>
        <pt x="140" y="815" on="0"/>
        <pt x="211" y="815" on="1"/>
        <pt x="282" y="815" on="0"/>
        <pt x="358" y="724" on="0"/>
        <pt x="358" y="638" on="1"/>
        <pt x="358" y="552" on="0"/>
        <pt x="282" y="460" on="0"/>
        <pt x="211" y="460" on="1"/>
        <pt x="140" y="460" on="0"/>
        <pt x="65" y="552" on="0"/>
        <pt x="65" y="638" on="1"/>
      </contour>
      <contour>
        <pt x="101" y="97" on="1"/>
        <pt x="599" y="818" on="1"/>
        <pt x="599" y="703" on="1"/>
        <pt x="101" y="-18" on="1"/>
      </contour>
      <contour>
        <pt x="150" y="592" on="0"/>
        <pt x="182" y="543" on="0"/>
        <pt x="211" y="543" on="1"/>
        <pt x="241" y="543" on="0"/>
        <pt x="273" y="592" on="0"/>
        <pt x="273" y="638" on="1"/>
        <pt x="273" y="684" on="0"/>
        <pt x="241" y="732" on="0"/>
        <pt x="211" y="732" on="1"/>
        <pt x="182" y="732" on="0"/>
        <pt x="150" y="684" on="0"/>
        <pt x="150" y="638" on="1"/>
      </contour>
      <contour>
        <pt x="427" y="116" on="0"/>
        <pt x="459" y="68" on="0"/>
        <pt x="489" y="68" on="1"/>
        <pt x="518" y="68" on="0"/>
        <pt x="550" y="116" on="0"/>
        <pt x="550" y="162" on="1"/>
        <pt x="550" y="208" on="0"/>
        <pt x="518" y="257" on="0"/>
        <pt x="489" y="257" on="1"/>
        <pt x="459" y="257" on="0"/>
        <pt x="427" y="208" on="0"/>
        <pt x="427" y="162" on="1"/>
      </contour>
    </TTGlyph>
    <TTGlyph name="period" xMin="267" yMin="-8" xMax="433" yMax="164">
      <contour>
        <pt x="310" y="-8" on="0"/>
        <pt x="267" y="37" on="0"/>
        <pt x="267" y="78" on="1"/>
        <pt x="267" y="119" on="0"/>
        <pt x="310" y="164" on="0"/>
        <pt x="350" y="164" on="1"/>
        <pt x="390" y="164" on="0"/>
        <pt x="433" y="119" on="0"/>
        <pt x="433" y="78" on="1"/>
        <pt x="433" y="37" on="0"/>
        <pt x="390" y="-8" on="0"/>
        <pt x="350" y="-8" on="1"/>
      </contour>
    </TTGlyph>
    <TTGlyph name="plus" xMin="93" yMin="93" xMax="607" yMax="607">
      <contour>
        <pt x="93" y="394" on="1"/>
        <pt x="306" y="394" on="1"/>
        <pt x="306" y="607" on="1"/>
        <pt x="394" y="607" on="1"/>
        <pt x="394" y="394" on="1"/>
        <pt x="607" y="394" on="1"/>
        <pt x="607" y="306" on="1"/>
        <pt x="394" y="306" on="1"/>
        <pt x="394" y="93" on="1"/>
        <pt x="306" y="93" on="1"/>
        <pt x="306" y="306" on="1"/>
        <pt x="93" y="306" on="1"/>
      </contour>
    </TTGlyph>
    <TTGlyph name="plus.case" xMin="93" yMin="143" xMax="607" yMax="657">
      <component glyphName="plus" x="0" y="50" flags="0x4"/>
    </TTGlyph>
    <TTGlyph name="q" xMin="68" yMin="-200" xMax="587" yMax="613">
      <contour>
        <pt x="365" y="613" on="0"/>
        <pt x="448" y="561" on="0"/>
        <pt x="463" y="513" on="1"/>
        <pt x="491" y="513" on="1"/>
        <pt x="491" y="598" on="1"/>
        <pt x="587" y="598" on="1"/>
        <pt x="587" y="-200" on="1"/>
        <pt x="491" y="-200" on="1"/>
        <pt x="491" y="85" on="1"/>
        <pt x="463" y="85" on="1"/>
        <pt x="448" y="37" on="0"/>
        <pt x="365" y="-15" on="0"/>
        <pt x="304" y="-15" on="1"/>
        <pt x="232" y="-15" on="0"/>
        <pt x="125" y="61" on="0"/>
        <pt x="68" y="203" on="0"/>
        <pt x="68" y="299" on="1"/>
        <pt x="68" y="395" on="0"/>
        <pt x="125" y="537" on="0"/>
        <pt x="232" y="613" on="0"/>
        <pt x="304" y="613" on="1"/>
      </contour>
      <contour>
        <pt x="166" y="192" on="0"/>
        <pt x="253" y="73" on="0"/>
        <pt x="331" y="73" on="1"/>
        <pt x="409" y="73" on="0"/>
        <pt x="496" y="192" on="0"/>
        <pt x="496" y="299" on="1"/>
        <pt x="496" y="406" on="0"/>
        <pt x="409" y="524" on="0"/>
        <pt x="331" y="524" on="1"/>
        <pt x="253" y="524" on="0"/>
        <pt x="166" y="406" on="0"/>
        <pt x="166" y="299" on="1"/>
      </contour>
    </TTGlyph>
    <TTGlyph name="question" xMin="76" yMin="-7" xMax="606" yMax="815">
      <contour>
        <pt x="277" y="276" on="0"/>
        <pt x="311" y="357" on="0"/>
        <pt x="361" y="409" on="0"/>
        <pt x="402" y="441" on="1"/>
        <pt x="436" y="468" on="0"/>
        <pt x="477" y="507" on="0"/>
        <pt x="504" y="564" on="0"/>
        <pt x="504" y="601" on="1"/>
        <pt x="504" y="656" on="0"/>
        <pt x="424" y="719" on="0"/>
        <pt x="354" y="719" on="1"/>
        <pt x="279" y="719" on="0"/>
        <pt x="190" y="644" on="0"/>
        <pt x="183" y="576" on="1"/>
        <pt x="76" y="576" on="1"/>
        <pt x="90" y="691" on="0"/>
        <pt x="234" y="815" on="0"/>
        <pt x="354" y="815" on="1"/>
        <pt x="471" y="815" on="0"/>
        <pt x="606" y="700" on="0"/>
        <pt x="606" y="601" on="1"/>
        <pt x="606" y="547" on="0"/>
        <pt x="571" y="468" on="0"/>
        <pt x="521" y="416" on="0"/>
        <pt x="480" y="383" on="1"/>
        <pt x="445" y="354" on="0"/>
        <pt x="404" y="313" on="0"/>
        <pt x="377" y="255" on="0"/>
        <pt x="377" y="218" on="1"/>
        <pt x="277" y="218" on="1"/>
      </contour>
      <contour>
        <pt x="250" y="103" on="0"/>
        <pt x="291" y="141" on="0"/>
        <pt x="329" y="141" on="1"/>
        <pt x="367" y="141" on="0"/>
        <pt x="408" y="103" on="0"/>
        <pt x="408" y="67" on="1"/>
        <pt x="408" y="32" on="0"/>
        <pt x="367" y="-7" on="0"/>
        <pt x="329" y="-7" on="1"/>
        <pt x="291" y="-7" on="0"/>
        <pt x="250" y="32" on="0"/>
        <pt x="250" y="67" on="1"/>
      </contour>
    </TTGlyph>
    <TTGlyph name="quotedbl" xMin="186" yMin="466" xMax="514" yMax="848">
      <component glyphName="quotesingle" x="-109" y="0" flags="0x0"/>
      <component glyphName="quotesingle" x="109" y="0" flags="0x0"/>
    </TTGlyph>
    <TTGlyph name="quotedblbase" xMin="116" yMin="-178" xMax="553" yMax="164">
      <component glyphName="comma" x="-139" y="0" flags="0x0"/>
      <component glyphName="comma" x="111" y="0" flags="0x0"/>
    </TTGlyph>
    <TTGlyph name="quotedblleft" xMin="147" yMin="494" xMax="584" yMax="836">
      <contour>
        <pt x="529" y="666" on="0"/>
        <pt x="572" y="621" on="0"/>
        <pt x="572" y="580" on="1"/>
        <pt x="572" y="539" on="0"/>
        <pt x="529" y="494" on="0"/>
        <pt x="489" y="494" on="1"/>
        <pt x="442" y="494" on="0"/>
        <pt x="397" y="549" on="0"/>
        <pt x="397" y="606" on="1"/>
        <pt x="397" y="678" on="0"/>
        <pt x="427" y="790" on="0"/>
        <pt x="458" y="836" on="1"/>
        <pt x="584" y="836" on="1"/>
        <pt x="531" y="795" on="0"/>
        <pt x="472" y="711" on="0"/>
        <pt x="463" y="663" on="1"/>
        <pt x="475" y="666" on="0"/>
        <pt x="489" y="666" on="1"/>
      </contour>
      <contour>
        <pt x="147" y="678" on="0"/>
        <pt x="177" y="790" on="0"/>
        <pt x="208" y="836" on="1"/>
        <pt x="334" y="836" on="1"/>
        <pt x="281" y="795" on="0"/>
        <pt x="222" y="711" on="0"/>
        <pt x="213" y="663" on="1"/>
        <pt x="225" y="666" on="0"/>
        <pt x="239" y="666" on="1"/>
        <pt x="279" y="666" on="0"/>
        <pt x="322" y="621" on="0"/>
        <pt x="322" y="580" on="1"/>
        <pt x="322" y="539" on="0"/>
        <pt x="279" y="494" on="0"/>
        <pt x="239" y="494" on="1"/>
        <pt x="192" y="494" on="0"/>
        <pt x="147" y="549" on="0"/>
        <pt x="147" y="606" on="1"/>
      </contour>
    </TTGlyph>
    <TTGlyph name="quotedblright" xMin="116" yMin="556" xMax="553" yMax="898">
      <component glyphName="quotedblbase" x="0" y="734" flags="0x4"/>
    </TTGlyph>
    <TTGlyph name="quoteleft" xMin="258" yMin="494" xMax="445" yMax="836">
      <contour>
        <pt x="390" y="666" on="0"/>
        <pt x="433" y="621" on="0"/>
        <pt x="433" y="580" on="1"/>
        <pt x="433" y="539" on="0"/>
        <pt x="390" y="494" on="0"/>
        <pt x="350" y="494" on="1"/>
        <pt x="303" y="494" on="0"/>
        <pt x="258" y="549" on="0"/>
        <pt x="258" y="606" on="1"/>
        <pt x="258" y="678" on="0"/>
        <pt x="288" y="790" on="0"/>
        <pt x="319" y="836" on="1"/>
        <pt x="445" y="836" on="1"/>
        <pt x="392" y="795" on="0"/>
        <pt x="333" y="711" on="0"/>
        <pt x="324" y="663" on="1"/>
        <pt x="336" y="666" on="0"/>
        <pt x="350" y="666" on="1"/>
      </contour>
    </TTGlyph>
    <TTGlyph name="quoteright" xMin="255" yMin="556" xMax="442" yMax="898">
      <component glyphName="comma" x="0" y="734" flags="0x4"/>
    </TTGlyph>
    <TTGlyph name="quotesinglbase" xMin="255" yMin="-178" xMax="442" yMax="164">
      <component glyphName="comma" x="0" y="0" flags="0x0"/>
    </TTGlyph>
    <TTGlyph name="quotesingle" xMin="295" yMin="466" xMax="405" yMax="848">
      <contour>
        <pt x="405" y="848" on="1"/>
        <pt x="387" y="466" on="1"/>
        <pt x="313" y="466" on="1"/>
        <pt x="295" y="848" on="1"/>
      </contour>
    </TTGlyph>
    <TTGlyph name="r" xMin="97" yMin="0" xMax="630" yMax="613">
      <contour>
        <pt x="328" y="598" on="1"/>
        <pt x="328" y="531" on="1"/>
        <pt x="356" y="531" on="1"/>
        <pt x="384" y="613" on="0"/>
        <pt x="480" y="613" on="1"/>
        <pt x="551" y="613" on="0"/>
        <pt x="630" y="516" on="0"/>
        <pt x="630" y="428" on="1"/>
        <pt x="630" y="340" on="1"/>
        <pt x="529" y="340" on="1"/>
        <pt x="529" y="413" on="1"/>
        <pt x="529" y="522" on="0"/>
        <pt x="441" y="522" on="1"/>
        <pt x="328" y="522" on="0"/>
        <pt x="328" y="329" on="1"/>
        <pt x="328" y="90" on="1"/>
        <pt x="521" y="90" on="1"/>
        <pt x="521" y="0" on="1"/>
        <pt x="117" y="0" on="1"/>
        <pt x="117" y="90" on="1"/>
        <pt x="232" y="90" on="1"/>
        <pt x="232" y="508" on="1"/>
        <pt x="97" y="508" on="1"/>
        <pt x="97" y="598" on="1"/>
      </contour>
    </TTGlyph>
    <TTGlyph name="s" xMin="115" yMin="-15" xMax="600" yMax="613">
      <contour>
        <pt x="217" y="130" on="0"/>
        <pt x="292" y="75" on="0"/>
        <pt x="356" y="75" on="1"/>
        <pt x="418" y="75" on="0"/>
        <pt x="488" y="124" on="0"/>
        <pt x="488" y="167" on="1"/>
        <pt x="488" y="200" on="0"/>
        <pt x="436" y="239" on="0"/>
        <pt x="380" y="247" on="1"/>
        <pt x="305" y="258" on="1"/>
        <pt x="211" y="272" on="0"/>
        <pt x="119" y="357" on="0"/>
        <pt x="119" y="429" on="1"/>
        <pt x="119" y="515" on="0"/>
        <pt x="244" y="613" on="0"/>
        <pt x="354" y="613" on="1"/>
        <pt x="464" y="613" on="0"/>
        <pt x="594" y="502" on="0"/>
        <pt x="600" y="402" on="1"/>
        <pt x="505" y="402" on="1"/>
        <pt x="501" y="461" on="0"/>
        <pt x="422" y="523" on="0"/>
        <pt x="353" y="523" on="1"/>
        <pt x="287" y="523" on="0"/>
        <pt x="215" y="474" on="0"/>
        <pt x="215" y="430" on="1"/>
        <pt x="215" y="397" on="0"/>
        <pt x="266" y="359" on="0"/>
        <pt x="323" y="351" on="1"/>
        <pt x="398" y="340" on="1"/>
        <pt x="492" y="325" on="0"/>
        <pt x="583" y="241" on="0"/>
        <pt x="583" y="168" on="1"/>
        <pt x="583" y="83" on="0"/>
        <pt x="462" y="-15" on="0"/>
        <pt x="355" y="-15" on="1"/>
        <pt x="249" y="-15" on="0"/>
        <pt x="124" y="88" on="0"/>
        <pt x="115" y="182" on="1"/>
        <pt x="210" y="182" on="1"/>
      </contour>
    </TTGlyph>
    <TTGlyph name="section" xMin="121" yMin="-216" xMax="579" yMax="816">
      <contour>
        <pt x="462" y="661" on="0"/>
        <pt x="404" y="720" on="0"/>
        <pt x="356" y="720" on="1"/>
        <pt x="313" y="720" on="0"/>
        <pt x="262" y="670" on="0"/>
        <pt x="262" y="628" on="1"/>
        <pt x="262" y="580" on="0"/>
        <pt x="322" y="521" on="0"/>
        <pt x="380" y="510" on="1"/>
        <pt x="473" y="493" on="0"/>
        <pt x="579" y="385" on="0"/>
        <pt x="579" y="307" on="1"/>
        <pt x="579" y="239" on="0"/>
        <pt x="504" y="147" on="0"/>
        <pt x="436" y="129" on="1"/>
        <pt x="436" y="101" on="1"/>
        <pt x="486" y="86" on="0"/>
        <pt x="540" y="14" on="0"/>
        <pt x="540" y="-38" on="1"/>
        <pt x="540" y="-119" on="0"/>
        <pt x="434" y="-216" on="0"/>
        <pt x="345" y="-216" on="1"/>
        <pt x="252" y="-216" on="0"/>
        <pt x="140" y="-107" on="0"/>
        <pt x="131" y="-7" on="1"/>
        <pt x="234" y="-7" on="1"/>
        <pt x="238" y="-61" on="0"/>
        <pt x="296" y="-120" on="0"/>
        <pt x="344" y="-120" on="1"/>
        <pt x="387" y="-120" on="0"/>
        <pt x="438" y="-70" on="0"/>
        <pt x="438" y="-28" on="1"/>
        <pt x="438" y="20" on="0"/>
        <pt x="378" y="79" on="0"/>
        <pt x="320" y="90" on="1"/>
        <pt x="227" y="107" on="0"/>
        <pt x="121" y="215" on="0"/>
        <pt x="121" y="293" on="1"/>
        <pt x="121" y="361" on="0"/>
        <pt x="196" y="453" on="0"/>
        <pt x="264" y="471" on="1"/>
        <pt x="264" y="499" on="1"/>
        <pt x="214" y="514" on="0"/>
        <pt x="160" y="586" on="0"/>
        <pt x="160" y="638" on="1"/>
        <pt x="160" y="719" on="0"/>
        <pt x="266" y="816" on="0"/>
        <pt x="355" y="816" on="1"/>
        <pt x="448" y="816" on="0"/>
        <pt x="560" y="707" on="0"/>
        <pt x="569" y="607" on="1"/>
        <pt x="466" y="607" on="1"/>
      </contour>
      <contour>
        <pt x="223" y="248" on="0"/>
        <pt x="291" y="188" on="0"/>
        <pt x="350" y="188" on="1"/>
        <pt x="409" y="188" on="0"/>
        <pt x="477" y="248" on="0"/>
        <pt x="477" y="300" on="1"/>
        <pt x="477" y="352" on="0"/>
        <pt x="409" y="412" on="0"/>
        <pt x="350" y="412" on="1"/>
        <pt x="291" y="412" on="0"/>
        <pt x="223" y="352" on="0"/>
        <pt x="223" y="300" on="1"/>
      </contour>
    </TTGlyph>
    <TTGlyph name="semicolon" xMin="255" yMin="-178" xMax="442" yMax="606">
      <component glyphName="period" x="0" y="442" flags="0x4"/>
      <component glyphName="comma" x="0" y="0" flags="0x0"/>
    </TTGlyph>
    <TTGlyph name="seven" xMin="90" yMin="0" xMax="594" yMax="800">
      <contour>
        <pt x="297" y="0" on="1"/>
        <pt x="188" y="0" on="1"/>
        <pt x="518" y="704" on="1"/>
        <pt x="90" y="704" on="1"/>
        <pt x="90" y="800" on="1"/>
        <pt x="594" y="800" on="1"/>
        <pt x="594" y="645" on="1"/>
      </contour>
    </TTGlyph>
    <TTGlyph name="six" xMin="77" yMin="-15" xMax="623" yMax="800">
      <contour>
        <pt x="268" y="-15" on="0"/>
        <pt x="145" y="52" on="0"/>
        <pt x="77" y="174" on="0"/>
        <pt x="77" y="254" on="1"/>
        <pt x="77" y="315" on="0"/>
        <pt x="116" y="429" on="0"/>
        <pt x="157" y="488" on="1"/>
        <pt x="367" y="800" on="1"/>
        <pt x="487" y="800" on="1"/>
        <pt x="274" y="494" on="1"/>
        <pt x="296" y="478" on="1"/>
        <pt x="309" y="491" on="0"/>
        <pt x="363" y="507" on="0"/>
        <pt x="394" y="507" on="1"/>
        <pt x="460" y="507" on="0"/>
        <pt x="564" y="442" on="0"/>
        <pt x="623" y="327" on="0"/>
        <pt x="623" y="254" on="1"/>
        <pt x="623" y="174" on="0"/>
        <pt x="555" y="52" on="0"/>
        <pt x="431" y="-15" on="0"/>
        <pt x="349" y="-15" on="1"/>
      </contour>
      <contour>
        <pt x="179" y="176" on="0"/>
        <pt x="273" y="81" on="0"/>
        <pt x="350" y="81" on="1"/>
        <pt x="427" y="81" on="0"/>
        <pt x="521" y="176" on="0"/>
        <pt x="521" y="254" on="1"/>
        <pt x="521" y="333" on="0"/>
        <pt x="427" y="428" on="0"/>
        <pt x="350" y="428" on="1"/>
        <pt x="273" y="428" on="0"/>
        <pt x="179" y="333" on="0"/>
        <pt x="179" y="254" on="1"/>
      </contour>
    </TTGlyph>
    <TTGlyph name="slash" xMin="129" yMin="-170" xMax="571" yMax="848">
      <contour>
        <pt x="224" y="-170" on="1"/>
        <pt x="129" y="-170" on="1"/>
        <pt x="476" y="848" on="1"/>
        <pt x="571" y="848" on="1"/>
      </contour>
    </TTGlyph>
    <TTGlyph name="sterling" xMin="100" yMin="0" xMax="619" yMax="815">
      <contour>
        <pt x="160" y="186" on="0"/>
        <pt x="218" y="250" on="0"/>
        <pt x="218" y="299" on="1"/>
        <pt x="218" y="324" on="0"/>
        <pt x="212" y="346" on="1"/>
        <pt x="100" y="346" on="1"/>
        <pt x="100" y="430" on="1"/>
        <pt x="180" y="430" on="1"/>
        <pt x="165" y="468" on="0"/>
        <pt x="148" y="537" on="0"/>
        <pt x="148" y="580" on="1"/>
        <pt x="148" y="690" on="0"/>
        <pt x="270" y="815" on="0"/>
        <pt x="378" y="815" on="1"/>
        <pt x="486" y="815" on="0"/>
        <pt x="609" y="683" on="0"/>
        <pt x="619" y="555" on="1"/>
        <pt x="517" y="555" on="1"/>
        <pt x="509" y="636" on="0"/>
        <pt x="438" y="719" on="0"/>
        <pt x="378" y="719" on="1"/>
        <pt x="317" y="719" on="0"/>
        <pt x="249" y="646" on="0"/>
        <pt x="249" y="580" on="1"/>
        <pt x="249" y="542" on="0"/>
        <pt x="268" y="475" on="0"/>
        <pt x="287" y="430" on="1"/>
        <pt x="489" y="430" on="1"/>
        <pt x="489" y="346" on="1"/>
        <pt x="314" y="346" on="1"/>
        <pt x="319" y="321" on="0"/>
        <pt x="319" y="299" on="1"/>
        <pt x="319" y="222" on="0"/>
        <pt x="230" y="121" on="0"/>
        <pt x="137" y="96" on="1"/>
        <pt x="600" y="96" on="1"/>
        <pt x="600" y="0" on="1"/>
        <pt x="100" y="0" on="1"/>
        <pt x="100" y="170" on="1"/>
      </contour>
    </TTGlyph>
    <TTGlyph name="t" xMin="83" yMin="-15" xMax="607" yMax="750">
      <contour>
        <pt x="315" y="598" on="1"/>
        <pt x="588" y="598" on="1"/>
        <pt x="588" y="508" on="1"/>
        <pt x="315" y="508" on="1"/>
        <pt x="315" y="193" on="1"/>
        <pt x="315" y="75" on="0"/>
        <pt x="409" y="75" on="1"/>
        <pt x="503" y="75" on="0"/>
        <pt x="516" y="206" on="1"/>
        <pt x="607" y="206" on="1"/>
        <pt x="598" y="98" on="0"/>
        <pt x="495" y="-15" on="0"/>
        <pt x="405" y="-15" on="1"/>
        <pt x="314" y="-15" on="0"/>
        <pt x="219" y="92" on="0"/>
        <pt x="219" y="193" on="1"/>
        <pt x="219" y="508" on="1"/>
        <pt x="83" y="508" on="1"/>
        <pt x="83" y="598" on="1"/>
        <pt x="219" y="598" on="1"/>
        <pt x="219" y="750" on="1"/>
        <pt x="315" y="750" on="1"/>
      </contour>
    </TTGlyph>
    <TTGlyph name="three" xMin="74" yMin="-15" xMax="618" yMax="815">
      <contour>
        <pt x="614" y="106" on="0"/>
        <pt x="475" y="-15" on="0"/>
        <pt x="354" y="-15" on="1"/>
        <pt x="232" y="-15" on="0"/>
        <pt x="90" y="114" on="0"/>
        <pt x="79" y="234" on="1"/>
        <pt x="183" y="234" on="1"/>
        <pt x="191" y="160" on="0"/>
        <pt x="280" y="81" on="0"/>
        <pt x="354" y="81" on="1"/>
        <pt x="428" y="81" on="0"/>
        <pt x="513" y="154" on="0"/>
        <pt x="513" y="217" on="1"/>
        <pt x="513" y="281" on="0"/>
        <pt x="435" y="354" on="0"/>
        <pt x="367" y="354" on="1"/>
        <pt x="275" y="354" on="1"/>
        <pt x="275" y="448" on="1"/>
        <pt x="367" y="448" on="1"/>
        <pt x="437" y="448" on="0"/>
        <pt x="516" y="519" on="0"/>
        <pt x="516" y="581" on="1"/>
        <pt x="516" y="645" on="0"/>
        <pt x="433" y="719" on="0"/>
        <pt x="361" y="719" on="1"/>
        <pt x="284" y="719" on="0"/>
        <pt x="190" y="634" on="0"/>
        <pt x="180" y="556" on="1"/>
        <pt x="74" y="556" on="1"/>
        <pt x="86" y="681" on="0"/>
        <pt x="235" y="815" on="0"/>
        <pt x="361" y="815" on="1"/>
        <pt x="480" y="815" on="0"/>
        <pt x="618" y="691" on="0"/>
        <pt x="618" y="584" on="1"/>
        <pt x="618" y="515" on="0"/>
        <pt x="545" y="425" on="0"/>
        <pt x="482" y="415" on="1"/>
        <pt x="482" y="387" on="1"/>
        <pt x="543" y="377" on="0"/>
        <pt x="614" y="284" on="0"/>
        <pt x="614" y="213" on="1"/>
      </contour>
    </TTGlyph>
    <TTGlyph name="two" xMin="88" yMin="0" xMax="618" yMax="815">
      <contour>
        <pt x="457" y="425" on="0"/>
        <pt x="517" y="516" on="0"/>
        <pt x="517" y="568" on="1"/>
        <pt x="517" y="639" on="0"/>
        <pt x="437" y="719" on="0"/>
        <pt x="366" y="719" on="1"/>
        <pt x="294" y="719" on="0"/>
        <pt x="206" y="634" on="0"/>
        <pt x="195" y="556" on="1"/>
        <pt x="88" y="556" on="1"/>
        <pt x="100" y="680" on="0"/>
        <pt x="244" y="815" on="0"/>
        <pt x="366" y="815" on="1"/>
        <pt x="484" y="815" on="0"/>
        <pt x="618" y="683" on="0"/>
        <pt x="618" y="568" on="1"/>
        <pt x="618" y="492" on="0"/>
        <pt x="539" y="366" on="0"/>
        <pt x="454" y="301" on="1"/>
        <pt x="182" y="96" on="1"/>
        <pt x="603" y="96" on="1"/>
        <pt x="603" y="0" on="1"/>
        <pt x="108" y="0" on="1"/>
        <pt x="108" y="152" on="1"/>
        <pt x="393" y="375" on="1"/>
      </contour>
    </TTGlyph>
    <TTGlyph name="u" xMin="108" yMin="-15" xMax="580" yMax="598">
      <contour>
        <pt x="484" y="0" on="1"/>
        <pt x="484" y="80" on="1"/>
        <pt x="456" y="80" on="1"/>
        <pt x="442" y="35" on="0"/>
        <pt x="363" y="-15" on="0"/>
        <pt x="306" y="-15" on="1"/>
        <pt x="215" y="-15" on="0"/>
        <pt x="108" y="107" on="0"/>
        <pt x="108" y="211" on="1"/>
        <pt x="108" y="598" on="1"/>
        <pt x="204" y="598" on="1"/>
        <pt x="204" y="237" on="1"/>
        <pt x="204" y="158" on="0"/>
        <pt x="276" y="75" on="0"/>
        <pt x="344" y="75" on="1"/>
        <pt x="412" y="75" on="0"/>
        <pt x="484" y="158" on="0"/>
        <pt x="484" y="237" on="1"/>
        <pt x="484" y="598" on="1"/>
        <pt x="580" y="598" on="1"/>
        <pt x="580" y="0" on="1"/>
      </contour>
    </TTGlyph>
    <TTGlyph name="underscore" xMin="83" yMin="-121" xMax="617" yMax="-50">
      <contour>
        <pt x="617" y="-50" on="1"/>
        <pt x="617" y="-121" on="1"/>
        <pt x="83" y="-121" on="1"/>
        <pt x="83" y="-50" on="1"/>
      </contour>
    </TTGlyph>
    <TTGlyph name="uni0237" xMin="103" yMin="-215" xMax="495" yMax="598">
      <contour>
        <pt x="495" y="598" on="1"/>
        <pt x="495" y="-19" on="1"/>
        <pt x="495" y="-113" on="0"/>
        <pt x="393" y="-215" on="0"/>
        <pt x="300" y="-215" on="1"/>
        <pt x="213" y="-215" on="0"/>
        <pt x="110" y="-127" on="0"/>
        <pt x="103" y="-46" on="1"/>
        <pt x="197" y="-46" on="1"/>
        <pt x="202" y="-86" on="0"/>
        <pt x="254" y="-127" on="0"/>
        <pt x="300" y="-127" on="1"/>
        <pt x="348" y="-127" on="0"/>
        <pt x="399" y="-72" on="0"/>
        <pt x="399" y="-19" on="1"/>
        <pt x="399" y="508" on="1"/>
        <pt x="135" y="508" on="1"/>
        <pt x="135" y="598" on="1"/>
      </contour>
    </TTGlyph>
    <TTGlyph name="uni0306.cy" xMin="6" yMin="880" xMax="338" yMax="1024">
      <contour>
        <pt x="96" y="948" on="0"/>
        <pt x="172" y="948" on="1"/>
        <pt x="248" y="948" on="0"/>
        <pt x="252" y="1024" on="1"/>
        <pt x="338" y="1024" on="1"/>
        <pt x="332" y="956" on="0"/>
        <pt x="244" y="880" on="0"/>
        <pt x="172" y="880" on="1"/>
        <pt x="100" y="880" on="0"/>
        <pt x="12" y="956" on="0"/>
        <pt x="6" y="1024" on="1"/>
        <pt x="92" y="1024" on="1"/>
      </contour>
    </TTGlyph>
    <TTGlyph name="uni0307" xMin="10" yMin="692" xMax="158" yMax="845">
      <contour>
        <pt x="51" y="692" on="0"/>
        <pt x="10" y="733" on="0"/>
        <pt x="10" y="768" on="1"/>
        <pt x="10" y="804" on="0"/>
        <pt x="51" y="845" on="0"/>
        <pt x="84" y="845" on="1"/>
        <pt x="117" y="845" on="0"/>
        <pt x="158" y="804" on="0"/>
        <pt x="158" y="768" on="1"/>
        <pt x="158" y="733" on="0"/>
        <pt x="117" y="692" on="0"/>
        <pt x="84" y="692" on="1"/>
      </contour>
    </TTGlyph>
    <TTGlyph name="uni0308" xMin="-136" yMin="875" xMax="236" yMax="996">
      <contour>
        <pt x="-102" y="875" on="0"/>
        <pt x="-136" y="907" on="0"/>
        <pt x="-136" y="935" on="1"/>
        <pt x="-136" y="963" on="0"/>
        <pt x="-102" y="996" on="0"/>
        <pt x="-73" y="996" on="1"/>
        <pt x="-43" y="996" on="0"/>
        <pt x="-9" y="964" on="0"/>
        <pt x="-9" y="935" on="1"/>
        <pt x="-9" y="907" on="0"/>
        <pt x="-43" y="875" on="0"/>
        <pt x="-73" y="875" on="1"/>
      </contour>
      <contour>
        <pt x="109" y="964" on="0"/>
        <pt x="143" y="996" on="0"/>
        <pt x="173" y="996" on="1"/>
        <pt x="202" y="996" on="0"/>
        <pt x="236" y="963" on="0"/>
        <pt x="236" y="935" on="1"/>
        <pt x="236" y="907" on="0"/>
        <pt x="202" y="875" on="0"/>
        <pt x="173" y="875" on="1"/>
        <pt x="143" y="875" on="0"/>
        <pt x="109" y="907" on="0"/>
        <pt x="109" y="935" on="1"/>
      </contour>
    </TTGlyph>
    <TTGlyph name="uni043D" xMin="120" yMin="0" xMax="580" yMax="598">
      <contour>
        <pt x="216" y="598" on="1"/>
        <pt x="216" y="340" on="1"/>
        <pt x="484" y="340" on="1"/>
        <pt x="484" y="598" on="1"/>
        <pt x="580" y="598" on="1"/>
        <pt x="580" y="0" on="1"/>
        <pt x="484" y="0" on="1"/>
        <pt x="484" y="250" on="1"/>
        <pt x="216" y="250" on="1"/>
        <pt x="216" y="0" on="1"/>
        <pt x="120" y="0" on="1"/>
        <pt x="120" y="598" on="1"/>
      </contour>
    </TTGlyph>
    <TTGlyph name="uni043E" xMin="84" yMin="-15" xMax="616" yMax="613">
      <component glyphName="o" x="0" y="0" flags="0x0"/>
    </TTGlyph>
    <TTGlyph name="uni20BD" xMin="54" yMin="0" xMax="650" yMax="800">
      <contour>
        <pt x="515" y="800" on="0"/>
        <pt x="650" y="674" on="0"/>
        <pt x="650" y="564" on="1"/>
        <pt x="650" y="453" on="0"/>
        <pt x="515" y="327" on="0"/>
        <pt x="397" y="327" on="1"/>
        <pt x="255" y="327" on="1"/>
        <pt x="255" y="237" on="1"/>
        <pt x="443" y="237" on="1"/>
        <pt x="443" y="156" on="1"/>
        <pt x="255" y="156" on="1"/>
        <pt x="255" y="0" on="1"/>
        <pt x="159" y="0" on="1"/>
        <pt x="159" y="156" on="1"/>
        <pt x="54" y="156" on="1"/>
        <pt x="54" y="237" on="1"/>
        <pt x="159" y="237" on="1"/>
        <pt x="159" y="327" on="1"/>
        <pt x="54" y="327" on="1"/>
        <pt x="54" y="408" on="1"/>
        <pt x="159" y="408" on="1"/>
        <pt x="159" y="800" on="1"/>
        <pt x="397" y="800" on="1"/>
      </contour>
      <contour>
        <pt x="401" y="416" on="1"/>
        <pt x="470" y="416" on="0"/>
        <pt x="548" y="493" on="0"/>
        <pt x="548" y="560" on="1"/>
        <pt x="548" y="628" on="0"/>
        <pt x="470" y="704" on="0"/>
        <pt x="401" y="704" on="1"/>
        <pt x="255" y="704" on="1"/>
        <pt x="255" y="416" on="1"/>
      </contour>
    </TTGlyph>
    <TTGlyph name="v" xMin="70" yMin="0" xMax="630" yMax="598">
      <contour>
        <pt x="171" y="598" on="1"/>
        <pt x="353" y="45" on="1"/>
        <pt x="535" y="598" on="1"/>
        <pt x="630" y="598" on="1"/>
        <pt x="428" y="0" on="1"/>
        <pt x="272" y="0" on="1"/>
        <pt x="70" y="598" on="1"/>
      </contour>
    </TTGlyph>
    <TTGlyph name="w" xMin="35" yMin="0" xMax="665" yMax="598">
      <contour>
        <pt x="136" y="598" on="1"/>
        <pt x="217" y="58" on="1"/>
        <pt x="282" y="598" on="1"/>
        <pt x="425" y="598" on="1"/>
        <pt x="487" y="59" on="1"/>
        <pt x="568" y="598" on="1"/>
        <pt x="665" y="598" on="1"/>
        <pt x="553" y="0" on="1"/>
        <pt x="418" y="0" on="1"/>
        <pt x="351" y="555" on="1"/>
        <pt x="283" y="0" on="1"/>
        <pt x="147" y="0" on="1"/>
        <pt x="35" y="598" on="1"/>
      </contour>
    </TTGlyph>
    <TTGlyph name="x" xMin="79" yMin="0" xMax="621" yMax="598">
      <contour>
        <pt x="269" y="286" on="1"/>
        <pt x="79" y="598" on="1"/>
        <pt x="187" y="598" on="1"/>
        <pt x="349" y="327" on="1"/>
        <pt x="519" y="598" on="1"/>
        <pt x="621" y="598" on="1"/>
        <pt x="427" y="294" on="1"/>
        <pt x="610" y="0" on="1"/>
        <pt x="501" y="0" on="1"/>
        <pt x="348" y="252" on="1"/>
        <pt x="192" y="0" on="1"/>
        <pt x="90" y="0" on="1"/>
      </contour>
    </TTGlyph>
    <TTGlyph name="y" xMin="59" yMin="-215" xMax="642" yMax="598">
      <contour>
        <pt x="168" y="598" on="1"/>
        <pt x="371" y="77" on="1"/>
        <pt x="538" y="598" on="1"/>
        <pt x="642" y="598" on="1"/>
        <pt x="417" y="-80" on="1"/>
        <pt x="372" y="-215" on="0"/>
        <pt x="264" y="-215" on="1"/>
        <pt x="194" y="-215" on="0"/>
        <pt x="111" y="-135" on="0"/>
        <pt x="101" y="-59" on="1"/>
        <pt x="195" y="-59" on="1"/>
        <pt x="203" y="-93" on="0"/>
        <pt x="235" y="-126" on="0"/>
        <pt x="261" y="-126" on="1"/>
        <pt x="307" y="-126" on="0"/>
        <pt x="329" y="-53" on="1"/>
        <pt x="362" y="50" on="1"/>
        <pt x="282" y="50" on="1"/>
        <pt x="59" y="598" on="1"/>
      </contour>
    </TTGlyph>
    <TTGlyph name="yen" xMin="49" yMin="0" xMax="651" yMax="800">
      <contour>
        <pt x="351" y="446" on="1"/>
        <pt x="541" y="800" on="1"/>
        <pt x="651" y="800" on="1"/>
        <pt x="421" y="384" on="1"/>
        <pt x="581" y="384" on="1"/>
        <pt x="581" y="303" on="1"/>
        <pt x="400" y="303" on="1"/>
        <pt x="400" y="213" on="1"/>
        <pt x="581" y="213" on="1"/>
        <pt x="581" y="132" on="1"/>
        <pt x="400" y="132" on="1"/>
        <pt x="400" y="0" on="1"/>
        <pt x="300" y="0" on="1"/>
        <pt x="300" y="132" on="1"/>
        <pt x="119" y="132" on="1"/>
        <pt x="119" y="213" on="1"/>
        <pt x="300" y="213" on="1"/>
        <pt x="300" y="303" on="1"/>
        <pt x="119" y="303" on="1"/>
        <pt x="119" y="384" on="1"/>
        <pt x="279" y="384" on="1"/>
        <pt x="49" y="800" on="1"/>
        <pt x="161" y="800" on="1"/>
      </contour>
    </TTGlyph>
    <TTGlyph name="z" xMin="129" yMin="0" xMax="571" yMax="598">
      <contour>
        <pt x="571" y="598" on="1"/>
        <pt x="571" y="431" on="1"/>
        <pt x="177" y="90" on="1"/>
        <pt x="571" y="90" on="1"/>
        <pt x="571" y="0" on="1"/>
        <pt x="129" y="0" on="1"/>
        <pt x="129" y="167" on="1"/>
        <pt x="524" y="508" on="1"/>
        <pt x="129" y="508" on="1"/>
        <pt x="129" y="598" on="1"/>
      </contour>
    </TTGlyph>
    <TTGlyph name="zero" xMin="65" yMin="-15" xMax="635" yMax="815">
      <contour>
        <pt x="65" y="-15" on="0"/>
        <pt x="65" y="400" on="1"/>
        <pt x="65" y="815" on="0"/>
        <pt x="350" y="815" on="1"/>
        <pt x="635" y="815" on="0"/>
        <pt x="635" y="400" on="1"/>
        <pt x="635" y="-15" on="0"/>
        <pt x="350" y="-15" on="1"/>
      </contour>
      <contour>
        <pt x="164" y="356" on="0"/>
        <pt x="167" y="317" on="1"/>
        <pt x="516" y="582" on="1"/>
        <pt x="476" y="722" on="0"/>
        <pt x="350" y="722" on="1"/>
        <pt x="255" y="722" on="0"/>
        <pt x="164" y="564" on="0"/>
        <pt x="164" y="400" on="1"/>
      </contour>
      <contour>
        <pt x="205" y="147" on="0"/>
        <pt x="287" y="78" on="0"/>
        <pt x="350" y="78" on="1"/>
        <pt x="445" y="78" on="0"/>
        <pt x="536" y="236" on="0"/>
        <pt x="536" y="400" on="1"/>
        <pt x="536" y="445" on="0"/>
        <pt x="533" y="482" on="1"/>
        <pt x="184" y="218" on="1"/>
      </contour>
    </TTGlyph>
</ttFont>
